<?xml version="1.0" encoding="UTF-8" standalone="no"?><svg xmlns="http://www.w3.org/2000/svg" xmlns:xlink="http://www.w3.org/1999/xlink" contentStyleType="text/css" height="360px" preserveAspectRatio="none" style="width:630px;height:360px;background:#FFFFFF;" version="1.1" viewBox="0 0 630 360" width="630px" zoomAndPan="magnify"><defs/><g><rect fill="#F1F1F1" height="36.4883" rx="12.5" ry="12.5" style="stroke:#181818;stroke-width:1.5;" width="48" x="318" y="161.2207"/><text fill="#000000" font-family="sans-serif" font-size="14" lengthAdjust="spacing" textLength="28" x="328" y="184.7559">日主</text><rect fill="#F1F1F1" height="36.4883" rx="12.5" ry="12.5" style="stroke:#181818;stroke-width:1.5;" width="48" x="416" y="48.2441"/><text fill="#000000" font-family="sans-serif" font-size="14" lengthAdjust="spacing" textLength="28" x="426" y="71.7793">我生</text><rect fill="#F1F1F1" height="36.4883" rx="12.5" ry="12.5" style="stroke:#181818;stroke-width:1.5;" width="104" x="514" y="20"/><text fill="#000000" font-family="sans-serif" font-size="14" lengthAdjust="spacing" textLength="84" x="524" y="43.5352">食神（同性）</text><path d="M464,66.4883 L474,66.4883 C489,66.4883 489,38.2441 504,38.2441 L514,38.2441 " fill="none" style="stroke:#181818;stroke-width:1.0;"/><rect fill="#F1F1F1" height="36.4883" rx="12.5" ry="12.5" style="stroke:#181818;stroke-width:1.5;" width="104" x="514" y="76.4883"/><text fill="#000000" font-family="sans-serif" font-size="14" lengthAdjust="spacing" textLength="84" x="524" y="100.0234">伤官（异性）</text><path d="M464,66.4883 L474,66.4883 C489,66.4883 489,94.7324 504,94.7324 L514,94.7324 " fill="none" style="stroke:#181818;stroke-width:1.0;"/><path d="M366,179.4648 L376,179.4648 C391,179.4648 391,66.4883 406,66.4883 L416,66.4883 " fill="none" style="stroke:#181818;stroke-width:1.0;"/><rect fill="#F1F1F1" height="36.4883" rx="12.5" ry="12.5" style="stroke:#181818;stroke-width:1.5;" width="48" x="416" y="161.2207"/><text fill="#000000" font-family="sans-serif" font-size="14" lengthAdjust="spacing" textLength="28" x="426" y="184.7559">我克</text><rect fill="#F1F1F1" height="36.4883" rx="12.5" ry="12.5" style="stroke:#181818;stroke-width:1.5;" width="104" x="514" y="132.9766"/><text fill="#000000" font-family="sans-serif" font-size="14" lengthAdjust="spacing" textLength="84" x="524" y="156.5117">偏财（同性）</text><path d="M464,179.4648 L474,179.4648 C489,179.4648 489,151.2207 504,151.2207 L514,151.2207 " fill="none" style="stroke:#181818;stroke-width:1.0;"/><rect fill="#F1F1F1" height="36.4883" rx="12.5" ry="12.5" style="stroke:#181818;stroke-width:1.5;" width="104" x="514" y="189.4648"/><text fill="#000000" font-family="sans-serif" font-size="14" lengthAdjust="spacing" textLength="84" x="524" y="213">正财（异性）</text><path d="M464,179.4648 L474,179.4648 C489,179.4648 489,207.709 504,207.709 L514,207.709 " fill="none" style="stroke:#181818;stroke-width:1.0;"/><path d="M366,179.4648 L376,179.4648 C391,179.4648 391,179.4648 406,179.4648 L416,179.4648 " fill="none" style="stroke:#181818;stroke-width:1.0;"/><rect fill="#F1F1F1" height="36.4883" rx="12.5" ry="12.5" style="stroke:#181818;stroke-width:1.5;" width="48" x="416" y="274.1973"/><text fill="#000000" font-family="sans-serif" font-size="14" lengthAdjust="spacing" textLength="28" x="426" y="297.7324">同我</text><rect fill="#F1F1F1" height="36.4883" rx="12.5" ry="12.5" style="stroke:#181818;stroke-width:1.5;" width="104" x="514" y="245.9531"/><text fill="#000000" font-family="sans-serif" font-size="14" lengthAdjust="spacing" textLength="84" x="524" y="269.4883">比肩（同性）</text><path d="M464,292.4414 L474,292.4414 C489,292.4414 489,264.1973 504,264.1973 L514,264.1973 " fill="none" style="stroke:#181818;stroke-width:1.0;"/><rect fill="#F1F1F1" height="36.4883" rx="12.5" ry="12.5" style="stroke:#181818;stroke-width:1.5;" width="104" x="514" y="302.4414"/><text fill="#000000" font-family="sans-serif" font-size="14" lengthAdjust="spacing" textLength="84" x="524" y="325.9766">劫财（异性）</text><path d="M464,292.4414 L474,292.4414 C489,292.4414 489,320.6855 504,320.6855 L514,320.6855 " fill="none" style="stroke:#181818;stroke-width:1.0;"/><path d="M366,179.4648 L376,179.4648 C391,179.4648 391,292.4414 406,292.4414 L416,292.4414 " fill="none" style="stroke:#181818;stroke-width:1.0;"/><rect fill="#F1F1F1" height="36.4883" rx="12.5" ry="12.5" style="stroke:#181818;stroke-width:1.5;" width="48" x="220" y="104.7324"/><text fill="#000000" font-family="sans-serif" font-size="14" lengthAdjust="spacing" textLength="28" x="230" y="128.2676">生我</text><rect fill="#F1F1F1" height="36.4883" rx="12.5" ry="12.5" style="stroke:#181818;stroke-width:1.5;" width="160" x="10" y="76.4883"/><text fill="#000000" font-family="sans-serif" font-size="14" lengthAdjust="spacing" textLength="140" x="20" y="100.0234">枭神（同性）（偏印）</text><path d="M220,122.9766 L210,122.9766 C195,122.9766 195,94.7324 180,94.7324 L170,94.7324 " fill="none" style="stroke:#181818;stroke-width:1.0;"/><rect fill="#F1F1F1" height="36.4883" rx="12.5" ry="12.5" style="stroke:#181818;stroke-width:1.5;" width="104" x="66" y="132.9766"/><text fill="#000000" font-family="sans-serif" font-size="14" lengthAdjust="spacing" textLength="84" x="76" y="156.5117">正印（异性）</text><path d="M220,122.9766 L210,122.9766 C195,122.9766 195,151.2207 180,151.2207 L170,151.2207 " fill="none" style="stroke:#181818;stroke-width:1.0;"/><path d="M318,179.4648 L308,179.4648 C293,179.4648 293,122.9766 278,122.9766 L268,122.9766 " fill="none" style="stroke:#181818;stroke-width:1.0;"/><rect fill="#F1F1F1" height="36.4883" rx="12.5" ry="12.5" style="stroke:#181818;stroke-width:1.5;" width="48" x="220" y="217.709"/><text fill="#000000" font-family="sans-serif" font-size="14" lengthAdjust="spacing" textLength="28" x="230" y="241.2441">克我</text><rect fill="#F1F1F1" height="36.4883" rx="12.5" ry="12.5" style="stroke:#181818;stroke-width:1.5;" width="160" x="10" y="189.4648"/><text fill="#000000" font-family="sans-serif" font-size="14" lengthAdjust="spacing" textLength="140" x="20" y="213">七杀（同性）（偏官）</text><path d="M220,235.9531 L210,235.9531 C195,235.9531 195,207.709 180,207.709 L170,207.709 " fill="none" style="stroke:#181818;stroke-width:1.0;"/><rect fill="#F1F1F1" height="36.4883" rx="12.5" ry="12.5" style="stroke:#181818;stroke-width:1.5;" width="104" x="66" y="245.9531"/><text fill="#000000" font-family="sans-serif" font-size="14" lengthAdjust="spacing" textLength="84" x="76" y="269.4883">正官（异性）</text><path d="M220,235.9531 L210,235.9531 C195,235.9531 195,264.1973 180,264.1973 L170,264.1973 " fill="none" style="stroke:#181818;stroke-width:1.0;"/><path d="M318,179.4648 L308,179.4648 C293,179.4648 293,235.9531 278,235.9531 L268,235.9531 " fill="none" style="stroke:#181818;stroke-width:1.0;"/><!--MD5=[681b7aa9dc85e1ac8629cb49a423b220]
@startmindmap
+ 日主
++ 我生
+++ 食神（同性）
+++ 伤官（异性）
++ 我克
+++ 偏财（同性）
+++ 正财（异性）
++ 同我
+++ 比肩（同性）
+++ 劫财（异性）
- - 生我
- - - 枭神（同性）（偏印）
- - - 正印（异性）
- - 克我
- - - 七杀（同性）（偏官）
- - - 正官（异性）
@endmindmap

PlantUML version 1.2022.4(Sat Apr 09 06:29:17 PDT 2022)
(GPL source distribution)
Java Runtime: OpenJDK Runtime Environment
JVM: OpenJDK 64-Bit Server VM
Default Encoding: UTF-8
Language: en
Country: US
--></g></svg>