<svg xmlns="http://www.w3.org/2000/svg" xmlns:xlink="http://www.w3.org/1999/xlink" contentStyleType="text/css" height="360px" preserveAspectRatio="none" style="width:630px;height:360px;background:#FFFFFF;" version="1.1" viewBox="0 0 630 360" width="630px" zoomAndPan="magnify"><defs/><g><rect fill="#F1F1F1" height="36.4883" rx="12.5" ry="12.5" style="stroke:#181818;stroke-width:1.5;" width="48" x="318" y="161.2207"/><text fill="#000000" font-family="sans-serif" font-size="14" lengthAdjust="spacing" textLength="28" x="328" y="184.7559">&#26085;&#20027;</text><rect fill="#F1F1F1" height="36.4883" rx="12.5" ry="12.5" style="stroke:#181818;stroke-width:1.5;" width="48" x="416" y="48.2441"/><text fill="#000000" font-family="sans-serif" font-size="14" lengthAdjust="spacing" textLength="28" x="426" y="71.7793">&#25105;&#29983;</text><rect fill="#F1F1F1" height="36.4883" rx="12.5" ry="12.5" style="stroke:#181818;stroke-width:1.5;" width="104" x="514" y="20"/><text fill="#000000" font-family="sans-serif" font-size="14" lengthAdjust="spacing" textLength="84" x="524" y="43.5352">&#39135;&#31070;&#65288;&#21516;&#24615;&#65289;</text><path d="M464,66.4883 L474,66.4883 C489,66.4883 489,38.2441 504,38.2441 L514,38.2441 " fill="none" style="stroke:#181818;stroke-width:1.0;"/><rect fill="#F1F1F1" height="36.4883" rx="12.5" ry="12.5" style="stroke:#181818;stroke-width:1.5;" width="104" x="514" y="76.4883"/><text fill="#000000" font-family="sans-serif" font-size="14" lengthAdjust="spacing" textLength="84" x="524" y="100.0234">&#20260;&#23448;&#65288;&#24322;&#24615;&#65289;</text><path d="M464,66.4883 L474,66.4883 C489,66.4883 489,94.7324 504,94.7324 L514,94.7324 " fill="none" style="stroke:#181818;stroke-width:1.0;"/><path d="M366,179.4648 L376,179.4648 C391,179.4648 391,66.4883 406,66.4883 L416,66.4883 " fill="none" style="stroke:#181818;stroke-width:1.0;"/><rect fill="#F1F1F1" height="36.4883" rx="12.5" ry="12.5" style="stroke:#181818;stroke-width:1.5;" width="48" x="416" y="161.2207"/><text fill="#000000" font-family="sans-serif" font-size="14" lengthAdjust="spacing" textLength="28" x="426" y="184.7559">&#25105;&#20811;</text><rect fill="#F1F1F1" height="36.4883" rx="12.5" ry="12.5" style="stroke:#181818;stroke-width:1.5;" width="104" x="514" y="132.9766"/><text fill="#000000" font-family="sans-serif" font-size="14" lengthAdjust="spacing" textLength="84" x="524" y="156.5117">&#20559;&#36130;&#65288;&#21516;&#24615;&#65289;</text><path d="M464,179.4648 L474,179.4648 C489,179.4648 489,151.2207 504,151.2207 L514,151.2207 " fill="none" style="stroke:#181818;stroke-width:1.0;"/><rect fill="#F1F1F1" height="36.4883" rx="12.5" ry="12.5" style="stroke:#181818;stroke-width:1.5;" width="104" x="514" y="189.4648"/><text fill="#000000" font-family="sans-serif" font-size="14" lengthAdjust="spacing" textLength="84" x="524" y="213">&#27491;&#36130;&#65288;&#24322;&#24615;&#65289;</text><path d="M464,179.4648 L474,179.4648 C489,179.4648 489,207.709 504,207.709 L514,207.709 " fill="none" style="stroke:#181818;stroke-width:1.0;"/><path d="M366,179.4648 L376,179.4648 C391,179.4648 391,179.4648 406,179.4648 L416,179.4648 " fill="none" style="stroke:#181818;stroke-width:1.0;"/><rect fill="#F1F1F1" height="36.4883" rx="12.5" ry="12.5" style="stroke:#181818;stroke-width:1.5;" width="48" x="416" y="274.1973"/><text fill="#000000" font-family="sans-serif" font-size="14" lengthAdjust="spacing" textLength="28" x="426" y="297.7324">&#21516;&#25105;</text><rect fill="#F1F1F1" height="36.4883" rx="12.5" ry="12.5" style="stroke:#181818;stroke-width:1.5;" width="104" x="514" y="245.9531"/><text fill="#000000" font-family="sans-serif" font-size="14" lengthAdjust="spacing" textLength="84" x="524" y="269.4883">&#27604;&#32937;&#65288;&#21516;&#24615;&#65289;</text><path d="M464,292.4414 L474,292.4414 C489,292.4414 489,264.1973 504,264.1973 L514,264.1973 " fill="none" style="stroke:#181818;stroke-width:1.0;"/><rect fill="#F1F1F1" height="36.4883" rx="12.5" ry="12.5" style="stroke:#181818;stroke-width:1.5;" width="104" x="514" y="302.4414"/><text fill="#000000" font-family="sans-serif" font-size="14" lengthAdjust="spacing" textLength="84" x="524" y="325.9766">&#21163;&#36130;&#65288;&#24322;&#24615;&#65289;</text><path d="M464,292.4414 L474,292.4414 C489,292.4414 489,320.6855 504,320.6855 L514,320.6855 " fill="none" style="stroke:#181818;stroke-width:1.0;"/><path d="M366,179.4648 L376,179.4648 C391,179.4648 391,292.4414 406,292.4414 L416,292.4414 " fill="none" style="stroke:#181818;stroke-width:1.0;"/><rect fill="#F1F1F1" height="36.4883" rx="12.5" ry="12.5" style="stroke:#181818;stroke-width:1.5;" width="48" x="220" y="104.7324"/><text fill="#000000" font-family="sans-serif" font-size="14" lengthAdjust="spacing" textLength="28" x="230" y="128.2676">&#29983;&#25105;</text><rect fill="#F1F1F1" height="36.4883" rx="12.5" ry="12.5" style="stroke:#181818;stroke-width:1.5;" width="160" x="10" y="76.4883"/><text fill="#000000" font-family="sans-serif" font-size="14" lengthAdjust="spacing" textLength="140" x="20" y="100.0234">&#26541;&#31070;&#65288;&#21516;&#24615;&#65289;&#65288;&#20559;&#21360;&#65289;</text><path d="M220,122.9766 L210,122.9766 C195,122.9766 195,94.7324 180,94.7324 L170,94.7324 " fill="none" style="stroke:#181818;stroke-width:1.0;"/><rect fill="#F1F1F1" height="36.4883" rx="12.5" ry="12.5" style="stroke:#181818;stroke-width:1.5;" width="104" x="66" y="132.9766"/><text fill="#000000" font-family="sans-serif" font-size="14" lengthAdjust="spacing" textLength="84" x="76" y="156.5117">&#27491;&#21360;&#65288;&#24322;&#24615;&#65289;</text><path d="M220,122.9766 L210,122.9766 C195,122.9766 195,151.2207 180,151.2207 L170,151.2207 " fill="none" style="stroke:#181818;stroke-width:1.0;"/><path d="M318,179.4648 L308,179.4648 C293,179.4648 293,122.9766 278,122.9766 L268,122.9766 " fill="none" style="stroke:#181818;stroke-width:1.0;"/><rect fill="#F1F1F1" height="36.4883" rx="12.5" ry="12.5" style="stroke:#181818;stroke-width:1.5;" width="48" x="220" y="217.709"/><text fill="#000000" font-family="sans-serif" font-size="14" lengthAdjust="spacing" textLength="28" x="230" y="241.2441">&#20811;&#25105;</text><rect fill="#F1F1F1" height="36.4883" rx="12.5" ry="12.5" style="stroke:#181818;stroke-width:1.5;" width="160" x="10" y="189.4648"/><text fill="#000000" font-family="sans-serif" font-size="14" lengthAdjust="spacing" textLength="140" x="20" y="213">&#19971;&#26432;&#65288;&#21516;&#24615;&#65289;&#65288;&#20559;&#23448;&#65289;</text><path d="M220,235.9531 L210,235.9531 C195,235.9531 195,207.709 180,207.709 L170,207.709 " fill="none" style="stroke:#181818;stroke-width:1.0;"/><rect fill="#F1F1F1" height="36.4883" rx="12.5" ry="12.5" style="stroke:#181818;stroke-width:1.5;" width="104" x="66" y="245.9531"/><text fill="#000000" font-family="sans-serif" font-size="14" lengthAdjust="spacing" textLength="84" x="76" y="269.4883">&#27491;&#23448;&#65288;&#24322;&#24615;&#65289;</text><path d="M220,235.9531 L210,235.9531 C195,235.9531 195,264.1973 180,264.1973 L170,264.1973 " fill="none" style="stroke:#181818;stroke-width:1.0;"/><path d="M318,179.4648 L308,179.4648 C293,179.4648 293,235.9531 278,235.9531 L268,235.9531 " fill="none" style="stroke:#181818;stroke-width:1.0;"/><!--SRC=[RL1DIm9H5Ds_Nt6NYaoeICgif2p879BysB_q9GFE6vbv8xHJ8x0lJ11gaq8c4M6rQ24qFySPRULVw3q_ihJTUUUUS-wvBseoR31DfNaDbv0FtDlUSF29V1pLcwDMXoCVV7KxervxOjUTcoktyZInpwVqq7vqNky4RTT-QE5ppYwd0gVQ67yyhFdSVdTE__O9JRqv4xornhNdDPzpyRBgaoJW9OLFuj1jzrTw2bnjEDVlCx4aTazVVpDuuKN6S73gtbV-oH2NBZDMxeuI_e7pJqJ98gOieoIWJ0nJrIa4DeB-O6WZx4bX1YbI0dyO_24v4943OKZ6qY36NkHHzj9WwfQH8v1NJMQeHnRZVY-AupA6GuioLICo79G8ZSVs5mJiqB9gw5GZbA5uLbaADaFIbYes6hm9P1KK8yVOAZBkoEbvbHPaoAHtfGXAO5gmS85d4ugsTPvhdF1PwXi0]--></g></svg>