<svg xmlns="http://www.w3.org/2000/svg" xmlns:xlink="http://www.w3.org/1999/xlink" contentStyleType="text/css" height="486px" preserveAspectRatio="none" style="width:249px;height:486px;background:#FFFFFF;" version="1.1" viewBox="0 0 249 486" width="249px" zoomAndPan="magnify"><defs/><g><g id="Wood"><rect fill="#F1F1F1" height="93.0195" rx="12.5" ry="12.5" style="stroke:#181818;stroke-width:0.5;" width="51.5938" x="97.98" y="7"/><line style="stroke:#181818;stroke-width:0.5;" x1="97.98" x2="149.5738" y1="33.4883" y2="33.4883"/><text fill="#000000" font-family="sans-serif" font-size="14" lengthAdjust="spacing" textLength="14" x="116.7769" y="25.5352">&#26408;</text><text fill="#000000" font-family="sans-serif" font-size="12" lengthAdjust="spacing" textLength="31.5938" x="102.98" y="50.0898">&#37240;, &#38738;</text><text fill="#000000" font-family="sans-serif" font-size="12" lengthAdjust="spacing" textLength="31.5938" x="102.98" y="64.2227">&#32925;, &#32966;</text><text fill="#000000" font-family="sans-serif" font-size="12" lengthAdjust="spacing" textLength="31.5938" x="102.98" y="78.3555">&#30002;, &#20057;</text><text fill="#000000" font-family="sans-serif" font-size="12" lengthAdjust="spacing" textLength="31.5938" x="102.98" y="92.4883">&#23493;, &#21359;</text></g><g id="Fire"><rect fill="#F1F1F1" height="93.0195" rx="12.5" ry="12.5" style="stroke:#181818;stroke-width:0.5;" width="63.5938" x="141.98" y="160.02"/><line style="stroke:#181818;stroke-width:0.5;" x1="141.98" x2="205.5738" y1="186.5083" y2="186.5083"/><text fill="#000000" font-family="sans-serif" font-size="14" lengthAdjust="spacing" textLength="14" x="166.7769" y="178.5552">&#28779;</text><text fill="#000000" font-family="sans-serif" font-size="12" lengthAdjust="spacing" textLength="31.5938" x="146.98" y="203.1098">&#33510;, &#32418;</text><text fill="#000000" font-family="sans-serif" font-size="12" lengthAdjust="spacing" textLength="43.5938" x="146.98" y="217.2427">&#24515;, &#23567;&#32928;</text><text fill="#000000" font-family="sans-serif" font-size="12" lengthAdjust="spacing" textLength="31.5938" x="146.98" y="231.3755">&#19993;, &#19969;</text><text fill="#000000" font-family="sans-serif" font-size="12" lengthAdjust="spacing" textLength="31.5938" x="146.98" y="245.5083">&#24051;, &#21320;</text></g><g id="Earth"><rect fill="#F1F1F1" height="93.0195" rx="12.5" ry="12.5" style="stroke:#181818;stroke-width:0.5;" width="90.7813" x="134.38" y="313.04"/><line style="stroke:#181818;stroke-width:0.5;" x1="134.38" x2="225.1613" y1="339.5283" y2="339.5283"/><text fill="#000000" font-family="sans-serif" font-size="14" lengthAdjust="spacing" textLength="14" x="172.7706" y="331.5752">&#22303;</text><text fill="#000000" font-family="sans-serif" font-size="12" lengthAdjust="spacing" textLength="31.5938" x="139.38" y="356.1298">&#29976;, &#40644;</text><text fill="#000000" font-family="sans-serif" font-size="12" lengthAdjust="spacing" textLength="31.5938" x="139.38" y="370.2627">&#33086;, &#32963;</text><text fill="#000000" font-family="sans-serif" font-size="12" lengthAdjust="spacing" textLength="31.5938" x="139.38" y="384.3955">&#25098;, &#24049;</text><text fill="#000000" font-family="sans-serif" font-size="12" lengthAdjust="spacing" textLength="70.7813" x="139.38" y="398.5283">&#36784;, &#25100;, &#19985;, &#26410;</text></g><g id="Metal"><rect fill="#F1F1F1" height="93.0195" rx="12.5" ry="12.5" style="stroke:#181818;stroke-width:0.5;" width="63.5938" x="35.98" y="313.04"/><line style="stroke:#181818;stroke-width:0.5;" x1="35.98" x2="99.5737" y1="339.5283" y2="339.5283"/><text fill="#000000" font-family="sans-serif" font-size="14" lengthAdjust="spacing" textLength="14" x="60.7769" y="331.5752">&#37329;</text><text fill="#000000" font-family="sans-serif" font-size="12" lengthAdjust="spacing" textLength="31.5938" x="40.98" y="356.1298">&#36763;, &#30333;</text><text fill="#000000" font-family="sans-serif" font-size="12" lengthAdjust="spacing" textLength="43.5938" x="40.98" y="370.2627">&#32954;, &#22823;&#32928;</text><text fill="#000000" font-family="sans-serif" font-size="12" lengthAdjust="spacing" textLength="31.5938" x="40.98" y="384.3955">&#24218;, &#36763;</text><text fill="#000000" font-family="sans-serif" font-size="12" lengthAdjust="spacing" textLength="31.5938" x="40.98" y="398.5283">&#30003;, &#37193;</text></g><g id="Water"><rect fill="#F1F1F1" height="93.0195" rx="12.5" ry="12.5" style="stroke:#181818;stroke-width:0.5;" width="63.5938" x="42.98" y="160.02"/><line style="stroke:#181818;stroke-width:0.5;" x1="42.98" x2="106.5737" y1="186.5083" y2="186.5083"/><text fill="#000000" font-family="sans-serif" font-size="14" lengthAdjust="spacing" textLength="14" x="67.7769" y="178.5552">&#27700;</text><text fill="#000000" font-family="sans-serif" font-size="12" lengthAdjust="spacing" textLength="31.5938" x="47.98" y="203.1098">&#21688;, &#40657;</text><text fill="#000000" font-family="sans-serif" font-size="12" lengthAdjust="spacing" textLength="43.5938" x="47.98" y="217.2427">&#32958;, &#33152;&#33009;</text><text fill="#000000" font-family="sans-serif" font-size="12" lengthAdjust="spacing" textLength="31.5938" x="47.98" y="231.3755">&#22764;, &#30328;</text><text fill="#000000" font-family="sans-serif" font-size="12" lengthAdjust="spacing" textLength="31.5938" x="47.98" y="245.5083">&#20133;, &#23376;</text></g><!--link Wood to Fire--><g id="link_Wood_Fire"><path d="M138.91,100.23 C145.15,119.07 150.4744,135.164 156.7144,154.014 " fill="none" id="Wood-to-Fire" style="stroke:#181818;stroke-width:1.0;"/><polygon fill="#181818" points="158.6,159.71,159.569,149.9089,157.0287,154.9633,151.9743,152.423,158.6,159.71" style="stroke:#181818;stroke-width:1.0;"/></g><!--link Fire to Earth--><g id="link_Fire_Earth"><path d="M175.59,253.25 C176.34,272.09 176.9615,287.8747 177.7115,306.7247 " fill="none" id="Fire-to-Earth" style="stroke:#181818;stroke-width:1.0;"/><polygon fill="#181818" points="177.95,312.72,181.589,303.5681,177.7512,307.724,173.5954,303.8861,177.95,312.72" style="stroke:#181818;stroke-width:1.0;"/></g><!--reverse link Metal to Earth--><g id="link_Metal_Earth"><path d="M105.71,359.55 C117.18,359.55 122.65,359.55 134.11,359.55 " fill="none" id="Metal-backto-Earth" style="stroke:#181818;stroke-width:1.0;"/><polygon fill="#181818" points="99.71,359.55,108.71,363.55,104.71,359.55,108.71,355.55,99.71,359.55" style="stroke:#181818;stroke-width:1.0;"/></g><!--reverse link Water to Metal--><g id="link_Water_Metal"><path d="M72.3801,259.2435 C71.5001,278.0835 70.77,293.87 69.9,312.72 " fill="none" id="Water-backto-Metal" style="stroke:#181818;stroke-width:1.0;"/><polygon fill="#181818" points="72.66,253.25,68.2444,262.0536,72.4267,258.2446,76.2357,262.4268,72.66,253.25" style="stroke:#181818;stroke-width:1.0;"/></g><!--reverse link Wood to Water--><g id="link_Wood_Water"><path d="M107.089,105.9374 C100.979,124.7774 95.76,140.86 89.64,159.71 " fill="none" id="Wood-backto-Water" style="stroke:#181818;stroke-width:1.0;"/><polygon fill="#181818" points="108.94,100.23,102.3587,107.5571,107.3975,104.9861,109.9685,110.025,108.94,100.23" style="stroke:#181818;stroke-width:1.0;"/></g><!--link Wood to Earth--><g id="link_Wood_Earth"><path d="M149.77,72.83 C173.88,91.58 208.17,123.12 222.77,160.02 C242.69,210.36 225.7528,266.2524 207.0028,307.3024 " fill="none" id="Wood-to-Earth" style="stroke:#DD00AA;stroke-width:1.0;"/><polygon fill="#DD00AA" points="204.51,312.76,211.8877,306.2354,206.5874,308.212,204.6108,302.9117,204.51,312.76" style="stroke:#DD00AA;stroke-width:1.0;"/></g><!--reverse link Water to Earth--><g id="link_Water_Earth"><path d="M109.9853,258.1762 C123.0853,277.0162 134.81,293.87 147.91,312.72 " fill="none" id="Water-backto-Earth" style="stroke:#DD00AA;stroke-width:1.0;"/><polygon fill="#DD00AA" points="106.56,253.25,108.4139,262.9228,109.4144,257.3551,114.9821,258.3557,106.56,253.25" style="stroke:#DD00AA;stroke-width:1.0;"/></g><!--link Water to Fire--><g id="link_Water_Fire"><path d="M106.87,206.53 C118.46,206.53 124.04,206.53 135.63,206.53 " fill="none" id="Water-to-Fire" style="stroke:#DD00AA;stroke-width:1.0;"/><polygon fill="#DD00AA" points="141.63,206.53,132.63,202.53,136.63,206.53,132.63,210.53,141.63,206.53" style="stroke:#DD00AA;stroke-width:1.0;"/></g><!--link Fire to Metal--><g id="link_Fire_Metal"><path d="M141.68,253.25 C128.46,272.09 116.6169,288.9589 103.3869,307.8089 " fill="none" id="Fire-to-Metal" style="stroke:#DD00AA;stroke-width:1.0;"/><polygon fill="#DD00AA" points="99.94,312.72,108.3844,307.6513,102.8124,308.6274,101.8363,303.0554,99.94,312.72" style="stroke:#DD00AA;stroke-width:1.0;"/></g><!--reverse link Wood to Metal--><g id="link_Wood_Metal"><path d="M92.8708,76.968 C69.0208,95.798 40.12,123.49 25.77,160.02 C6,210.36 25.04,271.71 43.46,312.76 " fill="none" id="Wood-backto-Metal" style="stroke:#DD00AA;stroke-width:1.0;"/><polygon fill="#DD00AA" points="97.58,73.25,88.0375,75.6875,93.6557,76.3483,92.9949,81.9665,97.58,73.25" style="stroke:#DD00AA;stroke-width:1.0;"/></g><rect fill="#DDDDDD" height="42.9766" id="_legend" rx="7.5" ry="7.5" style="stroke:#000000;stroke-width:1.0;" width="58.1927" x="88.7486" y="423.0595"/><path d="M100.582,432.8811 L100.582,435.2145 L94.7486,435.2145 L94.7486,436.3811 L100.582,436.3811 L100.582,438.7145 L104.082,435.7628 L100.582,432.8811 " fill="#000000" style="stroke:;stroke-width:0.0;stroke-dasharray:;"/><text fill="#000000" font-family="sans-serif" font-size="14" lengthAdjust="spacing" textLength="36.8594" x="105.082" y="441.5947">: &#30456;&#29983;</text><path d="M100.582,449.3694 L100.582,451.7028 L94.7486,451.7028 L94.7486,452.8694 L100.582,452.8694 L100.582,455.2028 L104.082,452.2511 L100.582,449.3694 " fill="#DD00AA" style="stroke:;stroke-width:0.0;stroke-dasharray:;"/><text fill="#000000" font-family="sans-serif" font-size="14" lengthAdjust="spacing" textLength="36.8594" x="105.082" y="458.083">: &#30456;&#20811;</text><!--SRC=[NL7BJi905DtFLqmqaKs9h0aX8K5thbouC2uQEa8JfAIK47Vo54MZ41OY48pl-0YW95I8-3EKbh_mphJJ09kRddFkd7jwhsVMUZMpxqQhCp-jpde33uh94i7aAAaTOuca8ggSr6GbWT2k9ce4hq7_6XPJU4zH9Cw10UEsPPLm3XmPjoMgMeoJC8EHEqGJuwvZRs0x0b8HzSL-F2_g0fwtQnnRkRQ0hNo9OxF-9U3fJuDZeriKi77PHJG3j5UU1MoExXre_EL1xLrPkJk7cUeDUAzdUSFmcpul8nQNsj_0-761OwimeUFp7C_Avz0_xBlwf2S0UK4zg_3LUaFi7wdIX2IDNnVdHl3oyOL6SIXZT2lGFexDEeIP5yyGsmZeDRgBSPLZAqV3b4wiVDzjUVYWKtIEfwCdcF9vZUpzU2Kba_06xGFHuZBsULZ5tZWvr82phyCgzgQJm3YdePKpzFmBvllhuR3F5meTh7gcaulIaf4gHsFQeheIRr5QoRJaoQB4IPGa98HnO4DKLILZkmTXcqtTh7Ue457YYkftNWQN-mARJBNxZM85WPbZ-Gy0]--></g></svg>