<svg xmlns="http://www.w3.org/2000/svg" xmlns:xlink="http://www.w3.org/1999/xlink" version="1.2" width="210.00mm" height="297.00mm" viewBox="0.0000 -0.0000 79.6677 112.6729">
<style type="text/css">
<![CDATA[
tspan { white-space: pre; }
]]>
</style>
<g transform="translate(34.9855, 5.6251)">
<text font-family="serif" font-weight="bold" font-size="3.4925" text-anchor="start" fill="currentColor">
<tspan>茉莉花</tspan>
</text>
</g>
<g transform="translate(67.0423, 9.1251)">
<text font-family="serif" font-size="2.2003" text-anchor="start" fill="currentColor">
<tspan>江蘇民歌</tspan>
</text>
</g>
<g transform="translate(9.4843, 16.1447)">
<line stroke-linejoin="round" stroke-linecap="round" stroke-width="0.0781" stroke="currentColor" x1="0.0390" y1="0" x2="66.3507" y2="0"/>
</g>
<g transform="translate(9.4843, 15.1447)">
<line stroke-linejoin="round" stroke-linecap="round" stroke-width="0.0781" stroke="currentColor" x1="0.0390" y1="0" x2="66.3507" y2="0"/>
</g>
<g transform="translate(9.4843, 14.1447)">
<line stroke-linejoin="round" stroke-linecap="round" stroke-width="0.0781" stroke="currentColor" x1="0.0390" y1="0" x2="66.3507" y2="0"/>
</g>
<g transform="translate(9.4843, 13.1447)">
<line stroke-linejoin="round" stroke-linecap="round" stroke-width="0.0781" stroke="currentColor" x1="0.0390" y1="0" x2="66.3507" y2="0"/>
</g>
<g transform="translate(9.4843, 12.1447)">
<line stroke-linejoin="round" stroke-linecap="round" stroke-width="0.0781" stroke="currentColor" x1="0.0390" y1="0" x2="66.3507" y2="0"/>
</g>
<g transform="translate(75.7256, 14.1447)">
<rect x="0.0000" y="-2.0000" width="0.1484" height="4.0000" ry="0.0000" fill="currentColor"/>
</g>
<g transform="translate(64.2604, 14.1447)">
<rect x="0.0000" y="-2.0000" width="0.1484" height="4.0000" ry="0.0000" fill="currentColor"/>
</g>
<g transform="translate(48.8211, 14.1447)">
<rect x="0.0000" y="-2.0000" width="0.1484" height="4.0000" ry="0.0000" fill="currentColor"/>
</g>
<g transform="translate(32.2592, 14.1447)">
<rect x="0.0000" y="-2.0000" width="0.1484" height="4.0000" ry="0.0000" fill="currentColor"/>
</g>
<g transform="translate(57.7702, 12.1447)">
<polygon stroke-linejoin="round" stroke-linecap="round" stroke-width="0.0533" fill="currentColor" stroke="currentColor" points="3.8398 -0.4143 3.8398 0.0124 0.0267 0.2133 0.0267 -0.2133"/>
</g>
<g transform="translate(18.0548, 16.1447)">
<path transform="scale(0.0040, -0.0040)" d="M222 135c64 0 104 -35 104 -86c0 -89 -114 -184 -221 -184c-64 0 -105 35 -105 86c0 89 115 184 222 184z" fill="currentColor"/>
</g>
<g transform="translate(10.2843, 15.1447)">
<path transform="scale(0.0040, -0.0040)" d="M264 -594c47 0 165 26 165 246c0 32 -2 64 -5 96c-5 -1 -44 -8 -89 -8c-193 0 -333 178 -333 372c0 178 133 306 251 440c-27 93 -49 170 -49 345c0 116 55 226 150 295c5 4 11 4 16 0c67 -81 132 -246 132 -359c0 -144 -87 -256 -183 -365c20 -69 39 -138 55 -208
c2 0 7 1 15 1c154 0 254 -127 254 -259c0 -112 -73 -212 -180 -245c3 -36 5 -72 5 -108c0 -19 0 -37 -1 -56c-7 -120 -89 -226 -206 -226c-108 0 -195 87 -195 195c0 58 53 104 112 104c54 0 95 -48 95 -104c0 -52 -43 -95 -95 -95c-12 0 -24 4 -35 9c26 -41 70 -70 121 -70
zM459 -205c71 24 117 92 117 166c0 92 -69 184 -179 193c1 -5 45 -212 62 -359zM71 31c0 -146 142 -251 267 -251c1 0 46 0 82 6c-7 63 -28 201 -64 367c-79 -9 -125 -62 -125 -121c0 -44 26 -92 82 -124c4 -4 7 -9 7 -14c0 -11 -9 -21 -20 -21c-14 0 -125 62 -125 186
c0 88 57 173 158 196c-14 60 -30 119 -46 178c-108 -121 -216 -242 -216 -402zM411 1050c-99 -50 -161 -151 -161 -262c0 -59 11 -123 33 -200c82 97 149 198 149 325c0 35 0 69 -21 137z" fill="currentColor"/>
</g>
<g transform="translate(14.5525, 14.1447)">
<path transform="scale(0.0040, -0.0040)" d="M227 0c-87 0 -89 65 -144 65c-30 0 -59 -21 -62 -55c-1 -7 -5 -10 -10 -10s-11 3 -11 10c0 154 232 171 232 345c0 60 -19 124 -71 124c-24 0 -46 -15 -46 -37c0 -27 35 -41 35 -68c0 -38 -31 -69 -69 -69s-68 31 -68 69c0 74 70 126 148 126c93 0 180 -58 180 -145
c0 -156 -160 -160 -254 -229c12 3 25 5 38 5c81 0 111 -58 171 -58c46 0 36 36 52 36c5 0 11 -4 11 -10c0 -21 -41 -99 -132 -99z" fill="currentColor"/>
</g>
<g transform="translate(14.4843, 16.1605)">
<path transform="scale(0.0040, -0.0040)" d="M-2 146c0 13 148 151 148 339c0 10 7 18 15 15c22 -7 44 -13 67 -13s45 6 67 13c12 4 21 -8 15 -15l-283 -333h173v147c0 32 34 24 65 67c11 15 18 32 25 49c4 9 20 7 20 -7v-256h68c9 0 13 -7 13 -14s-4 -13 -13 -13h-68v-16c0 -45 26 -88 68 -88c7 0 10 -5 10 -10
s-3 -11 -10 -11c-41 0 -82 13 -123 13s-82 -13 -123 -13c-7 0 -10 6 -10 11s3 10 10 10c42 0 68 43 68 88v16h-173c-21 0 -29 13 -29 21z" fill="currentColor"/>
</g>
<g transform="translate(18.0932, 19.6447)">
<text font-family="serif" font-size="2.4697" text-anchor="start" fill="currentColor">
<tspan>3</tspan>
</text>
</g>
<g transform="translate(14.4843, 11.2755)">
<text font-family="serif" font-weight="bold" font-size="2.2003" text-anchor="start" fill="currentColor">
<tspan>Moderato</tspan>
</text>
</g>
<g transform="translate(19.3099, 14.1447)">
<rect x="-0.0508" y="-1.5000" width="0.1015" height="3.3033" ry="0.0267" fill="currentColor"/>
</g>
<g transform="translate(56.5659, 14.1447)">
<path stroke-width="0.0625" stroke-linejoin="round" stroke-linecap="round" stroke="currentColor" fill="currentColor" d="M0.7270 2.1889C1.8028 2.8823 3.7109 2.5529 4.4919 1.5389L4.4919 1.5389C3.6949 2.4606 1.7868 2.7900 0.7270 2.1889z"/>
</g>
<g transform="translate(24.2790, 16.1447)">
<path transform="scale(0.0040, -0.0040)" d="M222 135c64 0 104 -35 104 -86c0 -89 -114 -184 -221 -184c-64 0 -105 35 -105 86c0 89 115 184 222 184z" fill="currentColor"/>
</g>
<g transform="translate(24.2790, 19.6447)">
<text font-family="serif" font-size="2.4697" text-anchor="start" fill="currentColor">
<tspan>3⋅5</tspan>
</text>
</g>
<g transform="translate(25.5341, 14.1447)">
<rect x="-0.0508" y="-1.2083" width="0.1015" height="3.0116" ry="0.0267" fill="currentColor"/>
</g>
<g transform="translate(28.2940, 15.1447)">
<path transform="scale(0.0040, -0.0040)" d="M222 135c64 0 104 -35 104 -86c0 -89 -114 -184 -221 -184c-64 0 -105 35 -105 86c0 89 115 184 222 184z" fill="currentColor"/>
</g>
<g transform="translate(29.5490, 14.1447)">
<rect x="-0.0508" y="-1.7917" width="0.1015" height="2.5949" ry="0.0267" fill="currentColor"/>
</g>
<g transform="translate(41.6342, 16.3456)">
<polygon stroke-linejoin="round" stroke-linecap="round" stroke-width="0.0533" fill="currentColor" stroke="currentColor" points="3.5898 0.3848 3.5898 0.8114 0.0267 0.2133 0.0267 -0.2133"/>
</g>
<g transform="translate(33.8543, 14.6447)">
<path transform="scale(0.0040, -0.0040)" d="M222 135c64 0 104 -35 104 -86c0 -89 -114 -184 -221 -184c-64 0 -105 35 -105 86c0 89 115 184 222 184z" fill="currentColor"/>
</g>
<g transform="translate(33.8543, 19.6447)">
<text font-family="serif" font-size="2.4697" text-anchor="start" fill="currentColor">
<tspan>6⋅1̇</tspan>
</text>
</g>
<g transform="translate(33.9050, 14.1447)">
<rect x="-0.0508" y="0.6967" width="0.1015" height="2.0949" ry="0.0267" fill="currentColor"/>
</g>
<g transform="translate(33.8543, 16.9437)">
<polygon stroke-linejoin="round" stroke-linecap="round" stroke-width="0.0533" fill="currentColor" stroke="currentColor" points="4.0898 -0.8114 4.0898 -0.3848 0.0267 0.2133 0.0267 -0.2133"/>
</g>
<g transform="translate(37.8693, 13.6447)">
<path transform="scale(0.0040, -0.0040)" d="M222 135c64 0 104 -35 104 -86c0 -89 -114 -184 -221 -184c-64 0 -105 35 -105 86c0 89 115 184 222 184z" fill="currentColor"/>
</g>
<g transform="translate(37.9200, 14.1447)">
<rect x="-0.0508" y="-0.3033" width="0.1015" height="2.5116" ry="0.0267" fill="currentColor"/>
</g>
<g transform="translate(41.6342, 14.1447)">
<path stroke-width="0.0625" stroke-linejoin="round" stroke-linecap="round" stroke="currentColor" fill="currentColor" d="M0.7720 -1.5389C1.8774 -2.0971 3.6409 -1.5954 4.2870 -0.5389L4.2870 -0.5389C3.6153 -1.5052 1.8518 -2.0069 0.7720 -1.5389z"/>
</g>
<g transform="translate(41.6342, 13.6447)">
<path transform="scale(0.0040, -0.0040)" d="M222 135c64 0 104 -35 104 -86c0 -89 -114 -184 -221 -184c-64 0 -105 35 -105 86c0 89 115 184 222 184z" fill="currentColor"/>
</g>
<g transform="translate(41.6342, 19.6447)">
<text font-family="serif" font-size="2.4697" text-anchor="start" fill="currentColor">
<tspan>1̇⋅6</tspan>
</text>
</g>
<g transform="translate(41.6850, 14.1447)">
<rect x="-0.0508" y="-0.3033" width="0.1015" height="2.5126" ry="0.0267" fill="currentColor"/>
</g>
<g transform="translate(45.1492, 14.6447)">
<path transform="scale(0.0040, -0.0040)" d="M222 135c64 0 104 -35 104 -86c0 -89 -114 -184 -221 -184c-64 0 -105 35 -105 86c0 89 115 184 222 184z" fill="currentColor"/>
</g>
<g transform="translate(45.2000, 14.1447)">
<rect x="-0.0508" y="0.6967" width="0.1015" height="2.0939" ry="0.0267" fill="currentColor"/>
</g>
<g transform="translate(25.4833, 12.9437)">
<polygon stroke-linejoin="round" stroke-linecap="round" stroke-width="0.0533" fill="currentColor" stroke="currentColor" points="4.0898 -0.8114 4.0898 -0.3848 0.0267 0.2133 0.0267 -0.2133"/>
</g>
<g transform="translate(33.8543, 14.1447)">
<path stroke-width="0.0625" stroke-linejoin="round" stroke-linecap="round" stroke="currentColor" fill="currentColor" d="M0.5477 -0.5388C1.2975 -1.6687 3.3703 -2.1850 4.5627 -1.5388L4.5627 -1.5388C3.3930 -2.0940 1.3202 -1.5778 0.5477 -0.5388z"/>
</g>
<g transform="translate(50.3417, 15.1447)">
<path transform="scale(0.0040, -0.0040)" d="M222 135c64 0 104 -35 104 -86c0 -89 -114 -184 -221 -184c-64 0 -105 35 -105 86c0 89 115 184 222 184z" fill="currentColor"/>
</g>
<g transform="translate(50.3800, 19.6447)">
<text font-family="serif" font-size="2.4697" text-anchor="start" fill="currentColor">
<tspan>5</tspan>
</text>
</g>
<g transform="translate(51.5968, 14.1447)">
<rect x="-0.0508" y="-2.5000" width="0.1015" height="3.3033" ry="0.0267" fill="currentColor"/>
</g>
<g transform="translate(56.5659, 15.1447)">
<path transform="scale(0.0040, -0.0040)" d="M222 135c64 0 104 -35 104 -86c0 -89 -114 -184 -221 -184c-64 0 -105 35 -105 86c0 89 115 184 222 184z" fill="currentColor"/>
</g>
<g transform="translate(56.5659, 19.6447)">
<text font-family="serif" font-size="2.4697" text-anchor="start" fill="currentColor">
<tspan>5⋅6</tspan>
</text>
</g>
<g transform="translate(57.8209, 14.1447)">
<rect x="-0.0508" y="-2.0026" width="0.1015" height="2.8059" ry="0.0267" fill="currentColor"/>
</g>
<g transform="translate(24.2790, 14.1447)">
<path stroke-width="0.0625" stroke-linejoin="round" stroke-linecap="round" stroke="currentColor" fill="currentColor" d="M0.7431 3.0389C1.9047 3.7236 3.9735 3.2856 4.7580 2.1889L4.7580 2.1889C3.9541 3.1940 1.8853 3.6319 0.7431 3.0389z"/>
</g>
<g transform="translate(60.3309, 14.6447)">
<path transform="scale(0.0040, -0.0040)" d="M222 135c64 0 104 -35 104 -86c0 -89 -114 -184 -221 -184c-64 0 -105 35 -105 86c0 89 115 184 222 184z" fill="currentColor"/>
</g>
<g transform="translate(61.5859, 14.1447)">
<rect x="-0.0508" y="-2.1983" width="0.1015" height="2.5016" ry="0.0267" fill="currentColor"/>
</g>
<g transform="translate(66.7809, 15.1447)">
<path transform="scale(0.0040, -0.0040)" d="M316 67c0 23 -18 42 -42 42c-40 0 -209 -113 -237 -147c-7 -8 -10 -19 -10 -29c0 -23 18 -42 42 -42c40 0 209 113 237 147c7 8 10 19 10 29zM265 135c38 0 78 -13 78 -68c0 -27 -19 -111 -76 -150c-19 -13 -85 -52 -189 -52c-38 0 -78 13 -78 68c0 27 19 111 76 150
c19 13 85 52 189 52z" fill="currentColor"/>
</g>
<g transform="translate(66.8524, 19.6447)">
<text font-family="serif" font-size="2.4697" text-anchor="start" fill="currentColor">
<tspan>5</tspan>
</text>
</g>
<g transform="translate(68.1022, 14.1447)">
<rect x="-0.0508" y="-2.5000" width="0.1015" height="3.2316" ry="0.0267" fill="currentColor"/>
</g>
<g transform="translate(3.7937, 28.1447)">
<line stroke-linejoin="round" stroke-linecap="round" stroke-width="0.0781" stroke="currentColor" x1="0.0390" y1="0" x2="72.0413" y2="0"/>
</g>
<g transform="translate(3.7937, 27.1447)">
<line stroke-linejoin="round" stroke-linecap="round" stroke-width="0.0781" stroke="currentColor" x1="0.0390" y1="0" x2="72.0413" y2="0"/>
</g>
<g transform="translate(3.7937, 26.1447)">
<line stroke-linejoin="round" stroke-linecap="round" stroke-width="0.0781" stroke="currentColor" x1="0.0390" y1="0" x2="72.0413" y2="0"/>
</g>
<g transform="translate(3.7937, 25.1447)">
<line stroke-linejoin="round" stroke-linecap="round" stroke-width="0.0781" stroke="currentColor" x1="0.0390" y1="0" x2="72.0413" y2="0"/>
</g>
<g transform="translate(3.7937, 24.1447)">
<line stroke-linejoin="round" stroke-linecap="round" stroke-width="0.0781" stroke="currentColor" x1="0.0390" y1="0" x2="72.0413" y2="0"/>
</g>
<g transform="translate(75.7256, 26.1447)">
<rect x="0.0000" y="-2.0000" width="0.1484" height="4.0000" ry="0.0000" fill="currentColor"/>
</g>
<g transform="translate(62.4894, 26.1447)">
<rect x="0.0000" y="-2.0000" width="0.1484" height="4.0000" ry="0.0000" fill="currentColor"/>
</g>
<g transform="translate(44.7545, 26.1447)">
<rect x="0.0000" y="-2.0000" width="0.1484" height="4.0000" ry="0.0000" fill="currentColor"/>
</g>
<g transform="translate(25.8970, 26.1447)">
<rect x="0.0000" y="-2.0000" width="0.1484" height="4.0000" ry="0.0000" fill="currentColor"/>
</g>
<g transform="translate(4.5937, 27.1447)">
<path transform="scale(0.0040, -0.0040)" d="M264 -594c47 0 165 26 165 246c0 32 -2 64 -5 96c-5 -1 -44 -8 -89 -8c-193 0 -333 178 -333 372c0 178 133 306 251 440c-27 93 -49 170 -49 345c0 116 55 226 150 295c5 4 11 4 16 0c67 -81 132 -246 132 -359c0 -144 -87 -256 -183 -365c20 -69 39 -138 55 -208
c2 0 7 1 15 1c154 0 254 -127 254 -259c0 -112 -73 -212 -180 -245c3 -36 5 -72 5 -108c0 -19 0 -37 -1 -56c-7 -120 -89 -226 -206 -226c-108 0 -195 87 -195 195c0 58 53 104 112 104c54 0 95 -48 95 -104c0 -52 -43 -95 -95 -95c-12 0 -24 4 -35 9c26 -41 70 -70 121 -70
zM459 -205c71 24 117 92 117 166c0 92 -69 184 -179 193c1 -5 45 -212 62 -359zM71 31c0 -146 142 -251 267 -251c1 0 46 0 82 6c-7 63 -28 201 -64 367c-79 -9 -125 -62 -125 -121c0 -44 26 -92 82 -124c4 -4 7 -9 7 -14c0 -11 -9 -21 -20 -21c-14 0 -125 62 -125 186
c0 88 57 173 158 196c-14 60 -30 119 -46 178c-108 -121 -216 -242 -216 -402zM411 1050c-99 -50 -161 -151 -161 -262c0 -59 11 -123 33 -200c82 97 149 198 149 325c0 35 0 69 -21 137z" fill="currentColor"/>
</g>
<g transform="translate(2.9287, 23.0852)">
<text font-family="serif" font-size="1.7462" text-anchor="start" fill="currentColor">
<tspan>5</tspan>
</text>
</g>
<g transform="translate(53.7455, 26.1447)">
<path stroke-width="0.0625" stroke-linejoin="round" stroke-linecap="round" stroke="currentColor" fill="currentColor" d="M0.7181 2.1889C1.8848 2.9682 4.1243 2.6288 5.0078 1.5389L5.0078 1.5389C4.1103 2.5362 1.8708 2.8755 0.7181 2.1889z"/>
</g>
<g transform="translate(9.5937, 28.1447)">
<path transform="scale(0.0040, -0.0040)" d="M222 135c64 0 104 -35 104 -86c0 -89 -114 -184 -221 -184c-64 0 -105 35 -105 86c0 89 115 184 222 184z" fill="currentColor"/>
</g>
<g transform="translate(9.6320, 31.6604)">
<text font-family="serif" font-size="2.4697" text-anchor="start" fill="currentColor">
<tspan>3</tspan>
</text>
</g>
<g transform="translate(10.8487, 26.1447)">
<rect x="-0.0508" y="-1.5000" width="0.1015" height="3.3033" ry="0.0267" fill="currentColor"/>
</g>
<g transform="translate(16.8673, 28.1447)">
<path transform="scale(0.0040, -0.0040)" d="M222 135c64 0 104 -35 104 -86c0 -89 -114 -184 -221 -184c-64 0 -105 35 -105 86c0 89 115 184 222 184z" fill="currentColor"/>
</g>
<g transform="translate(16.8673, 31.6604)">
<text font-family="serif" font-size="2.4697" text-anchor="start" fill="currentColor">
<tspan>3⋅5</tspan>
</text>
</g>
<g transform="translate(18.1224, 26.1447)">
<rect x="-0.0508" y="-1.2075" width="0.1015" height="3.0108" ry="0.0267" fill="currentColor"/>
</g>
<g transform="translate(36.5182, 28.3456)">
<polygon stroke-linejoin="round" stroke-linecap="round" stroke-width="0.0533" fill="currentColor" stroke="currentColor" points="4.1146 0.3848 4.1146 0.8114 0.0267 0.2133 0.0267 -0.2133"/>
</g>
<g transform="translate(21.4070, 27.1447)">
<path transform="scale(0.0040, -0.0040)" d="M222 135c64 0 104 -35 104 -86c0 -89 -114 -184 -221 -184c-64 0 -105 35 -105 86c0 89 115 184 222 184z" fill="currentColor"/>
</g>
<g transform="translate(22.6621, 26.1447)">
<rect x="-0.0508" y="-1.7925" width="0.1015" height="2.5958" ry="0.0267" fill="currentColor"/>
</g>
<g transform="translate(27.6888, 28.9437)">
<polygon stroke-linejoin="round" stroke-linecap="round" stroke-width="0.0533" fill="currentColor" stroke="currentColor" points="4.6146 -0.8114 4.6146 -0.3848 0.0267 0.2133 0.0267 -0.2133"/>
</g>
<g transform="translate(27.6888, 26.6447)">
<path transform="scale(0.0040, -0.0040)" d="M222 135c64 0 104 -35 104 -86c0 -89 -114 -184 -221 -184c-64 0 -105 35 -105 86c0 89 115 184 222 184z" fill="currentColor"/>
</g>
<g transform="translate(27.6888, 31.6604)">
<text font-family="serif" font-size="2.4697" text-anchor="start" fill="currentColor">
<tspan>6⋅1̇</tspan>
</text>
</g>
<g transform="translate(27.7395, 26.1447)">
<rect x="-0.0508" y="0.6967" width="0.1015" height="2.0958" ry="0.0267" fill="currentColor"/>
</g>
<g transform="translate(36.5182, 26.1447)">
<path stroke-width="0.0625" stroke-linejoin="round" stroke-linecap="round" stroke="currentColor" fill="currentColor" d="M0.7575 -1.5378C1.9540 -2.1857 4.0424 -1.6688 4.7972 -0.5378L4.7972 -0.5378C4.0199 -1.5778 1.9315 -2.0947 0.7575 -1.5378z"/>
</g>
<g transform="translate(32.2285, 25.6447)">
<path transform="scale(0.0040, -0.0040)" d="M222 135c64 0 104 -35 104 -86c0 -89 -114 -184 -221 -184c-64 0 -105 35 -105 86c0 89 115 184 222 184z" fill="currentColor"/>
</g>
<g transform="translate(32.2793, 26.1447)">
<rect x="-0.0508" y="-0.3033" width="0.1015" height="2.5108" ry="0.0267" fill="currentColor"/>
</g>
<g transform="translate(36.5182, 25.6447)">
<path transform="scale(0.0040, -0.0040)" d="M222 135c64 0 104 -35 104 -86c0 -89 -114 -184 -221 -184c-64 0 -105 35 -105 86c0 89 115 184 222 184z" fill="currentColor"/>
</g>
<g transform="translate(36.5182, 31.6604)">
<text font-family="serif" font-size="2.4697" text-anchor="start" fill="currentColor">
<tspan>1̇⋅6</tspan>
</text>
</g>
<g transform="translate(36.5690, 26.1447)">
<rect x="-0.0508" y="-0.3033" width="0.1015" height="2.5116" ry="0.0267" fill="currentColor"/>
</g>
<g transform="translate(18.0716, 24.9437)">
<polygon stroke-linejoin="round" stroke-linecap="round" stroke-width="0.0533" fill="currentColor" stroke="currentColor" points="4.6146 -0.8114 4.6146 -0.3848 0.0267 0.2133 0.0267 -0.2133"/>
</g>
<g transform="translate(40.5579, 26.6447)">
<path transform="scale(0.0040, -0.0040)" d="M222 135c64 0 104 -35 104 -86c0 -89 -114 -184 -221 -184c-64 0 -105 35 -105 86c0 89 115 184 222 184z" fill="currentColor"/>
</g>
<g transform="translate(40.6087, 26.1447)">
<rect x="-0.0508" y="0.6967" width="0.1015" height="2.0950" ry="0.0267" fill="currentColor"/>
</g>
<g transform="translate(54.9498, 24.1447)">
<polygon stroke-linejoin="round" stroke-linecap="round" stroke-width="0.0533" fill="currentColor" stroke="currentColor" points="4.3646 -0.4143 4.3646 0.0124 0.0267 0.2133 0.0267 -0.2133"/>
</g>
<g transform="translate(27.6888, 26.1447)">
<path stroke-width="0.0625" stroke-linejoin="round" stroke-linecap="round" stroke="currentColor" fill="currentColor" d="M0.5593 -0.5202C1.4117 -1.6693 3.8211 -2.2000 5.0990 -1.5202L5.0990 -1.5202C3.8413 -2.1085 1.4318 -1.5777 0.5593 -0.5202z"/>
</g>
<g transform="translate(46.4719, 27.1447)">
<path transform="scale(0.0040, -0.0040)" d="M222 135c64 0 104 -35 104 -86c0 -89 -114 -184 -221 -184c-64 0 -105 35 -105 86c0 89 115 184 222 184z" fill="currentColor"/>
</g>
<g transform="translate(46.5102, 31.6604)">
<text font-family="serif" font-size="2.4697" text-anchor="start" fill="currentColor">
<tspan>5</tspan>
</text>
</g>
<g transform="translate(47.7269, 26.1447)">
<rect x="-0.0508" y="-2.5000" width="0.1015" height="3.3033" ry="0.0267" fill="currentColor"/>
</g>
<g transform="translate(53.7455, 27.1447)">
<path transform="scale(0.0040, -0.0040)" d="M222 135c64 0 104 -35 104 -86c0 -89 -114 -184 -221 -184c-64 0 -105 35 -105 86c0 89 115 184 222 184z" fill="currentColor"/>
</g>
<g transform="translate(53.7455, 31.6604)">
<text font-family="serif" font-size="2.4697" text-anchor="start" fill="currentColor">
<tspan>5⋅6</tspan>
</text>
</g>
<g transform="translate(55.0005, 26.1447)">
<rect x="-0.0508" y="-2.0023" width="0.1015" height="2.8056" ry="0.0267" fill="currentColor"/>
</g>
<g transform="translate(16.8673, 26.1447)">
<path stroke-width="0.0625" stroke-linejoin="round" stroke-linecap="round" stroke="currentColor" fill="currentColor" d="M0.7330 3.0389C1.9812 3.8070 4.3869 3.3566 5.2727 2.1889L5.2727 2.1889C4.3697 3.2645 1.9640 3.7149 0.7330 3.0389z"/>
</g>
<g transform="translate(58.0352, 26.6447)">
<path transform="scale(0.0040, -0.0040)" d="M222 135c64 0 104 -35 104 -86c0 -89 -114 -184 -221 -184c-64 0 -105 35 -105 86c0 89 115 184 222 184z" fill="currentColor"/>
</g>
<g transform="translate(59.2903, 26.1447)">
<rect x="-0.0508" y="-2.1986" width="0.1015" height="2.5019" ry="0.0267" fill="currentColor"/>
</g>
<g transform="translate(65.2068, 27.1447)">
<path transform="scale(0.0040, -0.0040)" d="M316 67c0 23 -18 42 -42 42c-40 0 -209 -113 -237 -147c-7 -8 -10 -19 -10 -29c0 -23 18 -42 42 -42c40 0 209 113 237 147c7 8 10 19 10 29zM265 135c38 0 78 -13 78 -68c0 -27 -19 -111 -76 -150c-19 -13 -85 -52 -189 -52c-38 0 -78 13 -78 68c0 27 19 111 76 150
c19 13 85 52 189 52z" fill="currentColor"/>
</g>
<g transform="translate(65.2782, 31.6604)">
<text font-family="serif" font-size="2.4697" text-anchor="start" fill="currentColor">
<tspan>5</tspan>
</text>
</g>
<g transform="translate(66.5280, 26.1447)">
<rect x="-0.0508" y="-2.5000" width="0.1015" height="3.2316" ry="0.0267" fill="currentColor"/>
</g>
<g transform="translate(3.7937, 40.1447)">
<line stroke-linejoin="round" stroke-linecap="round" stroke-width="0.0781" stroke="currentColor" x1="0.0390" y1="0" x2="72.0413" y2="0"/>
</g>
<g transform="translate(3.7937, 39.1447)">
<line stroke-linejoin="round" stroke-linecap="round" stroke-width="0.0781" stroke="currentColor" x1="0.0390" y1="0" x2="72.0413" y2="0"/>
</g>
<g transform="translate(3.7937, 38.1447)">
<line stroke-linejoin="round" stroke-linecap="round" stroke-width="0.0781" stroke="currentColor" x1="0.0390" y1="0" x2="72.0413" y2="0"/>
</g>
<g transform="translate(3.7937, 37.1447)">
<line stroke-linejoin="round" stroke-linecap="round" stroke-width="0.0781" stroke="currentColor" x1="0.0390" y1="0" x2="72.0413" y2="0"/>
</g>
<g transform="translate(3.7937, 36.1447)">
<line stroke-linejoin="round" stroke-linecap="round" stroke-width="0.0781" stroke="currentColor" x1="0.0390" y1="0" x2="72.0413" y2="0"/>
</g>
<g transform="translate(75.7256, 38.1447)">
<rect x="0.0000" y="-2.0000" width="0.1484" height="4.0000" ry="0.0000" fill="currentColor"/>
</g>
<g transform="translate(62.2171, 38.1447)">
<rect x="0.0000" y="-2.0000" width="0.1484" height="4.0000" ry="0.0000" fill="currentColor"/>
</g>
<g transform="translate(44.0934, 38.1447)">
<rect x="0.0000" y="-2.0000" width="0.1484" height="4.0000" ry="0.0000" fill="currentColor"/>
</g>
<g transform="translate(25.9698, 38.1447)">
<rect x="0.0000" y="-2.0000" width="0.1484" height="4.0000" ry="0.0000" fill="currentColor"/>
</g>
<g transform="translate(54.4803, 35.9437)">
<polygon stroke-linejoin="round" stroke-linecap="round" stroke-width="0.0533" fill="currentColor" stroke="currentColor" points="4.4453 -0.0124 4.4453 0.4143 0.0267 0.2133 0.0267 -0.2133"/>
</g>
<g transform="translate(4.5937, 39.1447)">
<path transform="scale(0.0040, -0.0040)" d="M264 -594c47 0 165 26 165 246c0 32 -2 64 -5 96c-5 -1 -44 -8 -89 -8c-193 0 -333 178 -333 372c0 178 133 306 251 440c-27 93 -49 170 -49 345c0 116 55 226 150 295c5 4 11 4 16 0c67 -81 132 -246 132 -359c0 -144 -87 -256 -183 -365c20 -69 39 -138 55 -208
c2 0 7 1 15 1c154 0 254 -127 254 -259c0 -112 -73 -212 -180 -245c3 -36 5 -72 5 -108c0 -19 0 -37 -1 -56c-7 -120 -89 -226 -206 -226c-108 0 -195 87 -195 195c0 58 53 104 112 104c54 0 95 -48 95 -104c0 -52 -43 -95 -95 -95c-12 0 -24 4 -35 9c26 -41 70 -70 121 -70
zM459 -205c71 24 117 92 117 166c0 92 -69 184 -179 193c1 -5 45 -212 62 -359zM71 31c0 -146 142 -251 267 -251c1 0 46 0 82 6c-7 63 -28 201 -64 367c-79 -9 -125 -62 -125 -121c0 -44 26 -92 82 -124c4 -4 7 -9 7 -14c0 -11 -9 -21 -20 -21c-14 0 -125 62 -125 186
c0 88 57 173 158 196c-14 60 -30 119 -46 178c-108 -121 -216 -242 -216 -402zM411 1050c-99 -50 -161 -151 -161 -262c0 -59 11 -123 33 -200c82 97 149 198 149 325c0 35 0 69 -21 137z" fill="currentColor"/>
</g>
<g transform="translate(2.9287, 35.0818)">
<text font-family="serif" font-size="1.7462" text-anchor="start" fill="currentColor">
<tspan>9</tspan>
</text>
</g>
<g transform="translate(9.5937, 39.1447)">
<path transform="scale(0.0040, -0.0040)" d="M222 135c64 0 104 -35 104 -86c0 -89 -114 -184 -221 -184c-64 0 -105 35 -105 86c0 89 115 184 222 184z" fill="currentColor"/>
</g>
<g transform="translate(9.6320, 43.6447)">
<text font-family="serif" font-size="2.4697" text-anchor="start" fill="currentColor">
<tspan>5</tspan>
</text>
</g>
<g transform="translate(10.8487, 38.1447)">
<rect x="-0.0508" y="-2.5000" width="0.1015" height="3.3033" ry="0.0267" fill="currentColor"/>
</g>
<g transform="translate(53.2760, 38.1447)">
<path stroke-width="0.0625" stroke-linejoin="round" stroke-linecap="round" stroke="currentColor" fill="currentColor" d="M0.5889 1.5389C1.4876 2.6398 3.7791 2.9806 4.9593 2.1889L4.9593 2.1889C3.7929 2.8879 1.5013 2.5471 0.5889 1.5389z"/>
</g>
<g transform="translate(17.0287, 39.1447)">
<path transform="scale(0.0040, -0.0040)" d="M222 135c64 0 104 -35 104 -86c0 -89 -114 -184 -221 -184c-64 0 -105 35 -105 86c0 89 115 184 222 184z" fill="currentColor"/>
</g>
<g transform="translate(17.0670, 43.6447)">
<text font-family="serif" font-size="2.4697" text-anchor="start" fill="currentColor">
<tspan>5</tspan>
</text>
</g>
<g transform="translate(18.2838, 38.1447)">
<rect x="-0.0508" y="-2.0000" width="0.1015" height="2.8033" ry="0.0267" fill="currentColor"/>
</g>
<g transform="translate(21.3991, 39.1447)">
<path transform="scale(0.0040, -0.0040)" d="M222 135c64 0 104 -35 104 -86c0 -89 -114 -184 -221 -184c-64 0 -105 35 -105 86c0 89 115 184 222 184z" fill="currentColor"/>
</g>
<g transform="translate(21.4374, 43.6447)">
<text font-family="serif" font-size="2.4697" text-anchor="start" fill="currentColor">
<tspan>5</tspan>
</text>
</g>
<g transform="translate(22.6542, 38.1447)">
<rect x="-0.0508" y="-2.0000" width="0.1015" height="2.8033" ry="0.0267" fill="currentColor"/>
</g>
<g transform="translate(36.1067, 36.9437)">
<polygon stroke-linejoin="round" stroke-linecap="round" stroke-width="0.0533" fill="currentColor" stroke="currentColor" points="4.6953 -0.8114 4.6953 -0.3848 0.0267 0.2133 0.0267 -0.2133"/>
</g>
<g transform="translate(27.7174, 39.1447)">
<path transform="scale(0.0040, -0.0040)" d="M222 135c64 0 104 -35 104 -86c0 -89 -114 -184 -221 -184c-64 0 -105 35 -105 86c0 89 115 184 222 184z" fill="currentColor"/>
</g>
<g transform="translate(27.7557, 43.6447)">
<text font-family="serif" font-size="2.4697" text-anchor="start" fill="currentColor">
<tspan>5</tspan>
</text>
</g>
<g transform="translate(28.9724, 38.1447)">
<rect x="-0.0508" y="-2.5000" width="0.1015" height="3.3033" ry="0.0267" fill="currentColor"/>
</g>
<g transform="translate(34.9024, 40.1447)">
<path transform="scale(0.0040, -0.0040)" d="M222 135c64 0 104 -35 104 -86c0 -89 -114 -184 -221 -184c-64 0 -105 35 -105 86c0 89 115 184 222 184z" fill="currentColor"/>
</g>
<g transform="translate(34.9407, 43.6447)">
<text font-family="serif" font-size="2.4697" text-anchor="start" fill="currentColor">
<tspan>3</tspan>
</text>
</g>
<g transform="translate(36.1574, 38.1447)">
<rect x="-0.0508" y="-1.2074" width="0.1015" height="3.0107" ry="0.0267" fill="currentColor"/>
</g>
<g transform="translate(39.5228, 39.1447)">
<path transform="scale(0.0040, -0.0040)" d="M222 135c64 0 104 -35 104 -86c0 -89 -114 -184 -221 -184c-64 0 -105 35 -105 86c0 89 115 184 222 184z" fill="currentColor"/>
</g>
<g transform="translate(39.5611, 43.6447)">
<text font-family="serif" font-size="2.4697" text-anchor="start" fill="currentColor">
<tspan>5</tspan>
</text>
</g>
<g transform="translate(40.7778, 38.1447)">
<rect x="-0.0508" y="-1.7926" width="0.1015" height="2.5959" ry="0.0267" fill="currentColor"/>
</g>
<g transform="translate(18.2330, 36.1447)">
<polygon stroke-linejoin="round" stroke-linecap="round" stroke-width="0.0533" fill="currentColor" stroke="currentColor" points="4.4453 -0.2133 4.4453 0.2133 0.0267 0.2133 0.0267 -0.2133"/>
</g>
<g transform="translate(45.8410, 38.6447)">
<path transform="scale(0.0040, -0.0040)" d="M222 135c64 0 104 -35 104 -86c0 -89 -114 -184 -221 -184c-64 0 -105 35 -105 86c0 89 115 184 222 184z" fill="currentColor"/>
</g>
<g transform="translate(45.8793, 43.6447)">
<text font-family="serif" font-size="2.4697" text-anchor="start" fill="currentColor">
<tspan>6</tspan>
</text>
</g>
<g transform="translate(47.0961, 38.1447)">
<rect x="-0.0508" y="-3.0000" width="0.1015" height="3.3033" ry="0.0267" fill="currentColor"/>
</g>
<g transform="translate(53.2760, 38.6447)">
<path transform="scale(0.0040, -0.0040)" d="M222 135c64 0 104 -35 104 -86c0 -89 -114 -184 -221 -184c-64 0 -105 35 -105 86c0 89 115 184 222 184z" fill="currentColor"/>
</g>
<g transform="translate(53.2760, 43.6447)">
<text font-family="serif" font-size="2.4697" text-anchor="start" fill="currentColor">
<tspan>6⋅5</tspan>
</text>
</g>
<g transform="translate(54.5311, 38.1447)">
<rect x="-0.0508" y="-2.1987" width="0.1015" height="2.5019" ry="0.0267" fill="currentColor"/>
</g>
<g transform="translate(57.6464, 39.1447)">
<path transform="scale(0.0040, -0.0040)" d="M222 135c64 0 104 -35 104 -86c0 -89 -114 -184 -221 -184c-64 0 -105 35 -105 86c0 89 115 184 222 184z" fill="currentColor"/>
</g>
<g transform="translate(58.9015, 38.1447)">
<rect x="-0.0508" y="-2.0023" width="0.1015" height="2.8056" ry="0.0267" fill="currentColor"/>
</g>
<g transform="translate(64.9647, 39.1447)">
<path transform="scale(0.0040, -0.0040)" d="M316 67c0 23 -18 42 -42 42c-40 0 -209 -113 -237 -147c-7 -8 -10 -19 -10 -29c0 -23 18 -42 42 -42c40 0 209 113 237 147c7 8 10 19 10 29zM265 135c38 0 78 -13 78 -68c0 -27 -19 -111 -76 -150c-19 -13 -85 -52 -189 -52c-38 0 -78 13 -78 68c0 27 19 111 76 150
c19 13 85 52 189 52z" fill="currentColor"/>
</g>
<g transform="translate(65.0361, 43.6447)">
<text font-family="serif" font-size="2.4697" text-anchor="start" fill="currentColor">
<tspan>5</tspan>
</text>
</g>
<g transform="translate(66.2860, 38.1447)">
<rect x="-0.0508" y="-2.5000" width="0.1015" height="3.2316" ry="0.0267" fill="currentColor"/>
</g>
<g transform="translate(3.7937, 53.1447)">
<rect x="60.8135" y="-0.0890" width="2.0580" height="0.1781" ry="0.0890" fill="currentColor"/>
</g>
<g transform="translate(3.7937, 53.1447)">
<rect x="49.1027" y="-0.0890" width="1.9587" height="0.1781" ry="0.0890" fill="currentColor"/>
</g>
<g transform="translate(3.7937, 53.1447)">
<rect x="41.6470" y="-0.0890" width="1.9587" height="0.1781" ry="0.0890" fill="currentColor"/>
</g>
<g transform="translate(3.7937, 52.1447)">
<line stroke-linejoin="round" stroke-linecap="round" stroke-width="0.0781" stroke="currentColor" x1="0.0390" y1="0" x2="72.0413" y2="0"/>
</g>
<g transform="translate(3.7937, 51.1447)">
<line stroke-linejoin="round" stroke-linecap="round" stroke-width="0.0781" stroke="currentColor" x1="0.0390" y1="0" x2="72.0413" y2="0"/>
</g>
<g transform="translate(3.7937, 50.1447)">
<line stroke-linejoin="round" stroke-linecap="round" stroke-width="0.0781" stroke="currentColor" x1="0.0390" y1="0" x2="72.0413" y2="0"/>
</g>
<g transform="translate(3.7937, 49.1447)">
<line stroke-linejoin="round" stroke-linecap="round" stroke-width="0.0781" stroke="currentColor" x1="0.0390" y1="0" x2="72.0413" y2="0"/>
</g>
<g transform="translate(3.7937, 48.1447)">
<line stroke-linejoin="round" stroke-linecap="round" stroke-width="0.0781" stroke="currentColor" x1="0.0390" y1="0" x2="72.0413" y2="0"/>
</g>
<g transform="translate(75.7256, 50.1447)">
<rect x="0.0000" y="-2.0000" width="0.1484" height="4.0000" ry="0.0000" fill="currentColor"/>
</g>
<g transform="translate(62.1987, 50.1447)">
<rect x="0.0000" y="-2.0000" width="0.1484" height="4.0000" ry="0.0000" fill="currentColor"/>
</g>
<g transform="translate(44.0156, 50.1447)">
<rect x="0.0000" y="-2.0000" width="0.1484" height="4.0000" ry="0.0000" fill="currentColor"/>
</g>
<g transform="translate(26.0469, 50.1447)">
<rect x="0.0000" y="-2.0000" width="0.1484" height="4.0000" ry="0.0000" fill="currentColor"/>
</g>
<g transform="translate(4.5937, 51.1447)">
<path transform="scale(0.0040, -0.0040)" d="M264 -594c47 0 165 26 165 246c0 32 -2 64 -5 96c-5 -1 -44 -8 -89 -8c-193 0 -333 178 -333 372c0 178 133 306 251 440c-27 93 -49 170 -49 345c0 116 55 226 150 295c5 4 11 4 16 0c67 -81 132 -246 132 -359c0 -144 -87 -256 -183 -365c20 -69 39 -138 55 -208
c2 0 7 1 15 1c154 0 254 -127 254 -259c0 -112 -73 -212 -180 -245c3 -36 5 -72 5 -108c0 -19 0 -37 -1 -56c-7 -120 -89 -226 -206 -226c-108 0 -195 87 -195 195c0 58 53 104 112 104c54 0 95 -48 95 -104c0 -52 -43 -95 -95 -95c-12 0 -24 4 -35 9c26 -41 70 -70 121 -70
zM459 -205c71 24 117 92 117 166c0 92 -69 184 -179 193c1 -5 45 -212 62 -359zM71 31c0 -146 142 -251 267 -251c1 0 46 0 82 6c-7 63 -28 201 -64 367c-79 -9 -125 -62 -125 -121c0 -44 26 -92 82 -124c4 -4 7 -9 7 -14c0 -11 -9 -21 -20 -21c-14 0 -125 62 -125 186
c0 88 57 173 158 196c-14 60 -30 119 -46 178c-108 -121 -216 -242 -216 -402zM411 1050c-99 -50 -161 -151 -161 -262c0 -59 11 -123 33 -200c82 97 149 198 149 325c0 35 0 69 -21 137z" fill="currentColor"/>
</g>
<g transform="translate(2.0638, 47.0852)">
<text font-family="serif" font-size="1.7462" text-anchor="start" fill="currentColor">
<tspan>13</tspan>
</text>
</g>
<g transform="translate(53.2229, 50.1447)">
<path stroke-width="0.0625" stroke-linejoin="round" stroke-linecap="round" stroke="currentColor" fill="currentColor" d="M0.7023 4.0389C1.8531 4.8692 4.1489 4.6071 5.0830 3.5389L5.0830 3.5389C4.1383 4.5140 1.8424 4.7760 0.7023 4.0389z"/>
</g>
<g transform="translate(9.5937, 52.1447)">
<path transform="scale(0.0040, -0.0040)" d="M222 135c64 0 104 -35 104 -86c0 -89 -114 -184 -221 -184c-64 0 -105 35 -105 86c0 89 115 184 222 184z" fill="currentColor"/>
</g>
<g transform="translate(9.5937, 56.8169)">
<text font-family="serif" font-size="2.4697" text-anchor="start" fill="currentColor">
<tspan>3⋅2⋅3</tspan>
</text>
</g>
<g transform="translate(10.8487, 50.1447)">
<rect x="-0.0508" y="-1.5000" width="0.1015" height="3.3033" ry="0.0267" fill="currentColor"/>
</g>
<g transform="translate(17.0494, 52.6447)">
<path transform="scale(0.0040, -0.0040)" d="M222 135c64 0 104 -35 104 -86c0 -89 -114 -184 -221 -184c-64 0 -105 35 -105 86c0 89 115 184 222 184z" fill="currentColor"/>
</g>
<g transform="translate(18.3045, 50.1447)">
<rect x="-0.0508" y="-0.8013" width="0.1015" height="3.1046" ry="0.0267" fill="currentColor"/>
</g>
<g transform="translate(36.2084, 49.1447)">
<polygon stroke-linejoin="round" stroke-linecap="round" stroke-width="0.0533" fill="currentColor" stroke="currentColor" points="4.4556 -0.0124 4.4556 0.4143 0.0267 0.2133 0.0267 -0.2133"/>
</g>
<g transform="translate(21.4302, 52.1447)">
<path transform="scale(0.0040, -0.0040)" d="M222 135c64 0 104 -35 104 -86c0 -89 -114 -184 -221 -184c-64 0 -105 35 -105 86c0 89 115 184 222 184z" fill="currentColor"/>
</g>
<g transform="translate(22.6852, 50.1447)">
<rect x="-0.0508" y="-0.9977" width="0.1015" height="2.8010" ry="0.0267" fill="currentColor"/>
</g>
<g transform="translate(18.2537, 49.3456)">
<polygon stroke-linejoin="round" stroke-linecap="round" stroke-width="0.0533" fill="currentColor" stroke="currentColor" points="4.4556 -0.4143 4.4556 0.0124 0.0267 0.2133 0.0267 -0.2133"/>
</g>
<g transform="translate(27.7984, 51.1447)">
<path transform="scale(0.0040, -0.0040)" d="M222 135c64 0 104 -35 104 -86c0 -89 -114 -184 -221 -184c-64 0 -105 35 -105 86c0 89 115 184 222 184z" fill="currentColor"/>
</g>
<g transform="translate(27.7984, 56.8169)">
<text font-family="serif" font-size="2.4697" text-anchor="start" fill="currentColor">
<tspan>5⋅3⋅2</tspan>
</text>
</g>
<g transform="translate(29.0534, 50.1447)">
<rect x="-0.0508" y="-2.5000" width="0.1015" height="3.3033" ry="0.0267" fill="currentColor"/>
</g>
<g transform="translate(27.7984, 50.1447)">
<path stroke-width="0.0625" stroke-linejoin="round" stroke-linecap="round" stroke="currentColor" fill="currentColor" d="M0.6025 2.1889C2.3522 3.9258 10.0869 4.8270 12.1890 3.5389L12.1890 3.5389C10.0978 4.7339 2.3630 3.8327 0.6025 2.1889z"/>
</g>
<g transform="translate(35.0041, 52.1447)">
<path transform="scale(0.0040, -0.0040)" d="M222 135c64 0 104 -35 104 -86c0 -89 -114 -184 -221 -184c-64 0 -105 35 -105 86c0 89 115 184 222 184z" fill="currentColor"/>
</g>
<g transform="translate(36.2592, 50.1447)">
<rect x="-0.0508" y="-0.9977" width="0.1015" height="2.8010" ry="0.0267" fill="currentColor"/>
</g>
<g transform="translate(39.3849, 52.6447)">
<path transform="scale(0.0040, -0.0040)" d="M222 135c64 0 104 -35 104 -86c0 -89 -114 -184 -221 -184c-64 0 -105 35 -105 86c0 89 115 184 222 184z" fill="currentColor"/>
</g>
<g transform="translate(40.6399, 50.1447)">
<rect x="-0.0508" y="-0.8013" width="0.1015" height="3.1046" ry="0.0267" fill="currentColor"/>
</g>
<g transform="translate(54.4271, 50.1447)">
<polygon stroke-linejoin="round" stroke-linecap="round" stroke-width="0.0533" fill="currentColor" stroke="currentColor" points="4.4556 -0.4143 4.4556 0.0124 0.0267 0.2133 0.0267 -0.2133"/>
</g>
<g transform="translate(9.5937, 50.1447)">
<path stroke-width="0.0625" stroke-linejoin="round" stroke-linecap="round" stroke="currentColor" fill="currentColor" d="M0.6529 3.0389C2.6064 4.5684 10.5359 4.5684 12.4894 3.0389L12.4894 3.0389C10.5359 4.4747 2.6064 4.4747 0.6529 3.0389z"/>
</g>
<g transform="translate(45.7671, 53.1447)">
<path transform="scale(0.0040, -0.0040)" d="M222 135c64 0 104 -35 104 -86c0 -89 -114 -184 -221 -184c-64 0 -105 35 -105 86c0 89 115 184 222 184z" fill="currentColor"/>
</g>
<g transform="translate(45.8055, 56.8169)">
<text font-family="serif" font-size="2.4697" text-anchor="start" fill="currentColor">
<tspan>1</tspan>
</text>
</g>
<g transform="translate(47.0222, 50.1447)">
<rect x="-0.0508" y="-0.5000" width="0.1015" height="3.3033" ry="0.0267" fill="currentColor"/>
</g>
<g transform="translate(53.2229, 53.1447)">
<path transform="scale(0.0040, -0.0040)" d="M222 135c64 0 104 -35 104 -86c0 -89 -114 -184 -221 -184c-64 0 -105 35 -105 86c0 89 115 184 222 184z" fill="currentColor"/>
</g>
<g transform="translate(53.2229, 56.8169)">
<text font-family="serif" font-size="2.4697" text-anchor="start" fill="currentColor">
<tspan>1⋅2</tspan>
</text>
</g>
<g transform="translate(54.4779, 50.1447)">
<rect x="-0.0508" y="-0.0023" width="0.1015" height="2.8055" ry="0.0267" fill="currentColor"/>
</g>
<g transform="translate(57.6036, 52.6447)">
<path transform="scale(0.0040, -0.0040)" d="M222 135c64 0 104 -35 104 -86c0 -89 -114 -184 -221 -184c-64 0 -105 35 -105 86c0 89 115 184 222 184z" fill="currentColor"/>
</g>
<g transform="translate(58.8587, 50.1447)">
<rect x="-0.0508" y="-0.1987" width="0.1015" height="2.5019" ry="0.0267" fill="currentColor"/>
</g>
<g transform="translate(64.9502, 53.1447)">
<path transform="scale(0.0040, -0.0040)" d="M316 67c0 23 -18 42 -42 42c-40 0 -209 -113 -237 -147c-7 -8 -10 -19 -10 -29c0 -23 18 -42 42 -42c40 0 209 113 237 147c7 8 10 19 10 29zM265 135c38 0 78 -13 78 -68c0 -27 -19 -111 -76 -150c-19 -13 -85 -52 -189 -52c-38 0 -78 13 -78 68c0 27 19 111 76 150
c19 13 85 52 189 52z" fill="currentColor"/>
</g>
<g transform="translate(65.0216, 56.8169)">
<text font-family="serif" font-size="2.4697" text-anchor="start" fill="currentColor">
<tspan>1</tspan>
</text>
</g>
<g transform="translate(66.2714, 50.1447)">
<rect x="-0.0508" y="-0.5000" width="0.1015" height="3.2316" ry="0.0267" fill="currentColor"/>
</g>
<g transform="translate(3.7937, 65.1447)">
<rect x="14.5737" y="-0.0890" width="1.9587" height="0.1781" ry="0.0890" fill="currentColor"/>
</g>
<g transform="translate(3.7937, 64.1447)">
<line stroke-linejoin="round" stroke-linecap="round" stroke-width="0.0781" stroke="currentColor" x1="0.0390" y1="0" x2="72.0413" y2="0"/>
</g>
<g transform="translate(3.7937, 63.1447)">
<line stroke-linejoin="round" stroke-linecap="round" stroke-width="0.0781" stroke="currentColor" x1="0.0390" y1="0" x2="72.0413" y2="0"/>
</g>
<g transform="translate(3.7937, 62.1447)">
<line stroke-linejoin="round" stroke-linecap="round" stroke-width="0.0781" stroke="currentColor" x1="0.0390" y1="0" x2="72.0413" y2="0"/>
</g>
<g transform="translate(3.7937, 61.1447)">
<line stroke-linejoin="round" stroke-linecap="round" stroke-width="0.0781" stroke="currentColor" x1="0.0390" y1="0" x2="72.0413" y2="0"/>
</g>
<g transform="translate(3.7937, 60.1447)">
<line stroke-linejoin="round" stroke-linecap="round" stroke-width="0.0781" stroke="currentColor" x1="0.0390" y1="0" x2="72.0413" y2="0"/>
</g>
<g transform="translate(75.7256, 62.1447)">
<rect x="0.0000" y="-2.0000" width="0.1484" height="4.0000" ry="0.0000" fill="currentColor"/>
</g>
<g transform="translate(61.6107, 62.1447)">
<rect x="0.0000" y="-2.0000" width="0.1484" height="4.0000" ry="0.0000" fill="currentColor"/>
</g>
<g transform="translate(42.8005, 62.1447)">
<rect x="0.0000" y="-2.0000" width="0.1484" height="4.0000" ry="0.0000" fill="currentColor"/>
</g>
<g transform="translate(26.6668, 62.1447)">
<rect x="0.0000" y="-2.0000" width="0.1484" height="4.0000" ry="0.0000" fill="currentColor"/>
</g>
<g transform="translate(4.5937, 63.1447)">
<path transform="scale(0.0040, -0.0040)" d="M264 -594c47 0 165 26 165 246c0 32 -2 64 -5 96c-5 -1 -44 -8 -89 -8c-193 0 -333 178 -333 372c0 178 133 306 251 440c-27 93 -49 170 -49 345c0 116 55 226 150 295c5 4 11 4 16 0c67 -81 132 -246 132 -359c0 -144 -87 -256 -183 -365c20 -69 39 -138 55 -208
c2 0 7 1 15 1c154 0 254 -127 254 -259c0 -112 -73 -212 -180 -245c3 -36 5 -72 5 -108c0 -19 0 -37 -1 -56c-7 -120 -89 -226 -206 -226c-108 0 -195 87 -195 195c0 58 53 104 112 104c54 0 95 -48 95 -104c0 -52 -43 -95 -95 -95c-12 0 -24 4 -35 9c26 -41 70 -70 121 -70
zM459 -205c71 24 117 92 117 166c0 92 -69 184 -179 193c1 -5 45 -212 62 -359zM71 31c0 -146 142 -251 267 -251c1 0 46 0 82 6c-7 63 -28 201 -64 367c-79 -9 -125 -62 -125 -121c0 -44 26 -92 82 -124c4 -4 7 -9 7 -14c0 -11 -9 -21 -20 -21c-14 0 -125 62 -125 186
c0 88 57 173 158 196c-14 60 -30 119 -46 178c-108 -121 -216 -242 -216 -402zM411 1050c-99 -50 -161 -151 -161 -262c0 -59 11 -123 33 -200c82 97 149 198 149 325c0 35 0 69 -21 137z" fill="currentColor"/>
</g>
<g transform="translate(2.0638, 59.0818)">
<text font-family="serif" font-size="1.7462" text-anchor="start" fill="currentColor">
<tspan>17</tspan>
</text>
</g>
<g transform="translate(44.6155, 62.1447)">
<path stroke-width="0.0625" stroke-linejoin="round" stroke-linecap="round" stroke="currentColor" fill="currentColor" d="M1.6058 -0.2548C3.3574 -2.1836 11.1088 -3.0852 13.2125 -1.6048L13.2125 -1.6048C11.1197 -2.9921 3.3682 -2.0905 1.6058 -0.2548z"/>
</g>
<g transform="translate(9.5937, 64.1447)">
<path transform="scale(0.0040, -0.0040)" d="M222 135c64 0 104 -35 104 -86c0 -89 -114 -184 -221 -184c-64 0 -105 35 -105 86c0 89 115 184 222 184z" fill="currentColor"/>
</g>
<g transform="translate(9.5937, 69.0098)">
<text font-family="serif" font-size="2.4697" text-anchor="start" fill="currentColor">
<tspan>3⋅2⋅1</tspan>
</text>
</g>
<g transform="translate(10.8487, 62.1447)">
<rect x="-0.0508" y="-0.9978" width="0.1015" height="2.8011" ry="0.0267" fill="currentColor"/>
</g>
<g transform="translate(14.1438, 64.6447)">
<path transform="scale(0.0040, -0.0040)" d="M222 135c64 0 104 -35 104 -86c0 -89 -114 -184 -221 -184c-64 0 -105 35 -105 86c0 89 115 184 222 184z" fill="currentColor"/>
</g>
<g transform="translate(15.3988, 62.1447)">
<rect x="-0.0508" y="-0.8012" width="0.1015" height="3.1045" ry="0.0267" fill="currentColor"/>
</g>
<g transform="translate(28.4818, 62.1447)">
<path stroke-width="0.0625" stroke-linejoin="round" stroke-linecap="round" stroke="currentColor" fill="currentColor" d="M0.6753 3.5389C2.5029 4.8781 8.6874 4.5590 10.3675 3.0389L10.3675 3.0389C8.6826 4.4654 2.4981 4.7845 0.6753 3.5389z"/>
</g>
<g transform="translate(18.6939, 65.1447)">
<path transform="scale(0.0040, -0.0040)" d="M222 135c64 0 104 -35 104 -86c0 -89 -114 -184 -221 -184c-64 0 -105 35 -105 86c0 89 115 184 222 184z" fill="currentColor"/>
</g>
<g transform="translate(19.9489, 62.1447)">
<rect x="-0.0508" y="-0.5000" width="0.1015" height="3.3033" ry="0.0267" fill="currentColor"/>
</g>
<g transform="translate(10.7980, 61.1447)">
<polygon stroke-linejoin="round" stroke-linecap="round" stroke-width="0.0533" fill="currentColor" stroke="currentColor" points="4.6249 -0.0124 4.6249 0.4143 0.0267 0.2133 0.0267 -0.2133"/>
</g>
<g transform="translate(28.4818, 64.6447)">
<path transform="scale(0.0040, -0.0040)" d="M222 135c64 0 104 -35 104 -86c0 -89 -114 -184 -221 -184c-64 0 -105 35 -105 86c0 89 115 184 222 184z" fill="currentColor"/>
</g>
<g transform="translate(28.4818, 69.0098)">
<text font-family="serif" font-size="2.4697" text-anchor="start" fill="currentColor">
<tspan>2.⋅3</tspan>
</text>
</g>
<g transform="translate(30.2444, 64.6447)">
<path transform="scale(0.0040, -0.0040)" d="M0 0c0 32 25 57 57 57s57 -25 57 -57s-25 -57 -57 -57s-57 25 -57 57z" fill="currentColor"/>
</g>
<g transform="translate(29.7368, 62.1447)">
<rect x="-0.0508" y="-1.0000" width="0.1015" height="3.3033" ry="0.0267" fill="currentColor"/>
</g>
<g transform="translate(9.5937, 62.1447)">
<path stroke-width="0.0625" stroke-linejoin="round" stroke-linecap="round" stroke="currentColor" fill="currentColor" d="M0.6054 3.0389C2.1411 4.6166 7.8638 5.2454 9.7055 4.0389L9.7055 4.0389C7.8740 5.1523 2.1514 4.5234 0.6054 3.0389z"/>
</g>
<g transform="translate(38.1739, 64.1447)">
<path transform="scale(0.0040, -0.0040)" d="M222 135c64 0 104 -35 104 -86c0 -89 -114 -184 -221 -184c-64 0 -105 35 -105 86c0 89 115 184 222 184z" fill="currentColor"/>
</g>
<g transform="translate(39.4290, 62.1447)">
<rect x="-0.0508" y="-1.5000" width="0.1015" height="3.3033" ry="0.0267" fill="currentColor"/>
</g>
<g transform="translate(39.4797, 60.6713)">
<path transform="scale(0.0040, -0.0040)" d="M0 0v-250h-14v250h14zM0 0c0 -198 207 -336 207 -534c0 -71 -16 -142 -42 -208c-4 -7 -10 -11 -17 -11c-12 0 -24 10 -21 25c26 62 41 127 41 194c0 104 -96 209 -168 284v250z" fill="currentColor"/>
</g>
<g transform="translate(52.4250, 64.9437)">
<polygon stroke-linejoin="round" stroke-linecap="round" stroke-width="0.0533" fill="currentColor" stroke="currentColor" points="4.8749 -0.8114 4.8749 -0.3848 0.0267 0.2133 0.0267 -0.2133"/>
</g>
<g transform="translate(44.6155, 63.1447)">
<path transform="scale(0.0040, -0.0040)" d="M222 135c64 0 104 -35 104 -86c0 -89 -114 -184 -221 -184c-64 0 -105 35 -105 86c0 89 115 184 222 184z" fill="currentColor"/>
</g>
<g transform="translate(44.6155, 69.0098)">
<text font-family="serif" font-size="2.4697" text-anchor="start" fill="currentColor">
<tspan>5⋅6⋅1̇</tspan>
</text>
</g>
<g transform="translate(45.8705, 62.1447)">
<rect x="-0.0508" y="-2.5000" width="0.1015" height="3.3033" ry="0.0267" fill="currentColor"/>
</g>
<g transform="translate(52.4250, 62.6447)">
<path transform="scale(0.0040, -0.0040)" d="M222 135c64 0 104 -35 104 -86c0 -89 -114 -184 -221 -184c-64 0 -105 35 -105 86c0 89 115 184 222 184z" fill="currentColor"/>
</g>
<g transform="translate(52.4758, 62.1447)">
<rect x="-0.0508" y="0.6967" width="0.1015" height="2.0961" ry="0.0267" fill="currentColor"/>
</g>
<g transform="translate(57.2251, 61.6447)">
<path transform="scale(0.0040, -0.0040)" d="M222 135c64 0 104 -35 104 -86c0 -89 -114 -184 -221 -184c-64 0 -105 35 -105 86c0 89 115 184 222 184z" fill="currentColor"/>
</g>
<g transform="translate(57.2759, 62.1447)">
<rect x="-0.0508" y="-0.3033" width="0.1015" height="2.5104" ry="0.0267" fill="currentColor"/>
</g>
<g transform="translate(64.4257, 63.1447)">
<path transform="scale(0.0040, -0.0040)" d="M316 67c0 23 -18 42 -42 42c-40 0 -209 -113 -237 -147c-7 -8 -10 -19 -10 -29c0 -23 18 -42 42 -42c40 0 209 113 237 147c7 8 10 19 10 29zM265 135c38 0 78 -13 78 -68c0 -27 -19 -111 -76 -150c-19 -13 -85 -52 -189 -52c-38 0 -78 13 -78 68c0 27 19 111 76 150
c19 13 85 52 189 52z" fill="currentColor"/>
</g>
<g transform="translate(64.4971, 69.0098)">
<text font-family="serif" font-size="2.4697" text-anchor="start" fill="currentColor">
<tspan>5</tspan>
</text>
</g>
<g transform="translate(65.7469, 62.1447)">
<rect x="-0.0508" y="-2.5000" width="0.1015" height="3.2316" ry="0.0267" fill="currentColor"/>
</g>
<g transform="translate(3.7937, 76.1447)">
<line stroke-linejoin="round" stroke-linecap="round" stroke-width="0.0781" stroke="currentColor" x1="0.0390" y1="0" x2="72.0413" y2="0"/>
</g>
<g transform="translate(3.7937, 75.1447)">
<line stroke-linejoin="round" stroke-linecap="round" stroke-width="0.0781" stroke="currentColor" x1="0.0390" y1="0" x2="72.0413" y2="0"/>
</g>
<g transform="translate(3.7937, 74.1447)">
<line stroke-linejoin="round" stroke-linecap="round" stroke-width="0.0781" stroke="currentColor" x1="0.0390" y1="0" x2="72.0413" y2="0"/>
</g>
<g transform="translate(3.7937, 73.1447)">
<line stroke-linejoin="round" stroke-linecap="round" stroke-width="0.0781" stroke="currentColor" x1="0.0390" y1="0" x2="72.0413" y2="0"/>
</g>
<g transform="translate(3.7937, 72.1447)">
<line stroke-linejoin="round" stroke-linecap="round" stroke-width="0.0781" stroke="currentColor" x1="0.0390" y1="0" x2="72.0413" y2="0"/>
</g>
<g transform="translate(75.7256, 74.1447)">
<rect x="0.0000" y="-2.0000" width="0.1484" height="4.0000" ry="0.0000" fill="currentColor"/>
</g>
<g transform="translate(59.1125, 74.1447)">
<rect x="0.0000" y="-2.0000" width="0.1484" height="4.0000" ry="0.0000" fill="currentColor"/>
</g>
<g transform="translate(45.5473, 74.1447)">
<rect x="0.0000" y="-2.0000" width="0.1484" height="4.0000" ry="0.0000" fill="currentColor"/>
</g>
<g transform="translate(26.2869, 74.1447)">
<rect x="0.0000" y="-2.0000" width="0.1484" height="4.0000" ry="0.0000" fill="currentColor"/>
</g>
<g transform="translate(4.5937, 75.1447)">
<path transform="scale(0.0040, -0.0040)" d="M264 -594c47 0 165 26 165 246c0 32 -2 64 -5 96c-5 -1 -44 -8 -89 -8c-193 0 -333 178 -333 372c0 178 133 306 251 440c-27 93 -49 170 -49 345c0 116 55 226 150 295c5 4 11 4 16 0c67 -81 132 -246 132 -359c0 -144 -87 -256 -183 -365c20 -69 39 -138 55 -208
c2 0 7 1 15 1c154 0 254 -127 254 -259c0 -112 -73 -212 -180 -245c3 -36 5 -72 5 -108c0 -19 0 -37 -1 -56c-7 -120 -89 -226 -206 -226c-108 0 -195 87 -195 195c0 58 53 104 112 104c54 0 95 -48 95 -104c0 -52 -43 -95 -95 -95c-12 0 -24 4 -35 9c26 -41 70 -70 121 -70
zM459 -205c71 24 117 92 117 166c0 92 -69 184 -179 193c1 -5 45 -212 62 -359zM71 31c0 -146 142 -251 267 -251c1 0 46 0 82 6c-7 63 -28 201 -64 367c-79 -9 -125 -62 -125 -121c0 -44 26 -92 82 -124c4 -4 7 -9 7 -14c0 -11 -9 -21 -20 -21c-14 0 -125 62 -125 186
c0 88 57 173 158 196c-14 60 -30 119 -46 178c-108 -121 -216 -242 -216 -402zM411 1050c-99 -50 -161 -151 -161 -262c0 -59 11 -123 33 -200c82 97 149 198 149 325c0 35 0 69 -21 137z" fill="currentColor"/>
</g>
<g transform="translate(2.0638, 71.1056)">
<text font-family="serif" font-size="1.7462" text-anchor="start" fill="currentColor">
<tspan>21</tspan>
</text>
</g>
<g transform="translate(9.5937, 76.6447)">
<path transform="scale(0.0040, -0.0040)" d="M222 135c64 0 104 -35 104 -86c0 -89 -114 -184 -221 -184c-64 0 -105 35 -105 86c0 89 115 184 222 184z" fill="currentColor"/>
</g>
<g transform="translate(9.5937, 80.4822)">
<text font-family="serif" font-size="2.4697" text-anchor="start" fill="currentColor">
<tspan>2⋅3⋅5</tspan>
</text>
</g>
<g transform="translate(10.8487, 74.1447)">
<rect x="-0.0508" y="-1.0000" width="0.1015" height="3.3033" ry="0.0267" fill="currentColor"/>
</g>
<g transform="translate(37.1161, 76.3456)">
<polygon stroke-linejoin="round" stroke-linecap="round" stroke-width="0.0533" fill="currentColor" stroke="currentColor" points="4.2120 0.3848 4.2120 0.8114 0.0267 0.2133 0.0267 -0.2133"/>
</g>
<g transform="translate(17.0623, 76.1447)">
<path transform="scale(0.0040, -0.0040)" d="M222 135c64 0 104 -35 104 -86c0 -89 -114 -184 -221 -184c-64 0 -105 35 -105 86c0 89 115 184 222 184z" fill="currentColor"/>
</g>
<g transform="translate(18.3173, 74.1447)">
<rect x="-0.0508" y="-1.2074" width="0.1015" height="3.0106" ry="0.0267" fill="currentColor"/>
</g>
<g transform="translate(21.6994, 75.1447)">
<path transform="scale(0.0040, -0.0040)" d="M222 135c64 0 104 -35 104 -86c0 -89 -114 -184 -221 -184c-64 0 -105 35 -105 86c0 89 115 184 222 184z" fill="currentColor"/>
</g>
<g transform="translate(22.9545, 74.1447)">
<rect x="-0.0508" y="-1.7926" width="0.1015" height="2.5959" ry="0.0267" fill="currentColor"/>
</g>
<g transform="translate(29.2450, 73.3456)">
<polygon stroke-linejoin="round" stroke-linecap="round" stroke-width="0.0533" fill="currentColor" stroke="currentColor" points="4.4620 -0.4143 4.4620 0.0124 0.0267 0.2133 0.0267 -0.2133"/>
</g>
<g transform="translate(37.1161, 74.1447)">
<path stroke-width="0.0625" stroke-linejoin="round" stroke-linecap="round" stroke="currentColor" fill="currentColor" d="M0.7552 -1.5342C1.9680 -2.1886 4.1181 -1.6689 4.8923 -0.5342L4.8923 -0.5342C4.0960 -1.5778 1.9459 -2.0975 0.7552 -1.5342z"/>
</g>
<g transform="translate(28.0408, 76.6447)">
<path transform="scale(0.0040, -0.0040)" d="M222 135c64 0 104 -35 104 -86c0 -89 -114 -184 -221 -184c-64 0 -105 35 -105 86c0 89 115 184 222 184z" fill="currentColor"/>
</g>
<g transform="translate(28.0408, 80.4822)">
<text font-family="serif" font-size="2.4697" text-anchor="start" fill="currentColor">
<tspan>2⋅3</tspan>
</text>
</g>
<g transform="translate(29.2958, 74.1447)">
<rect x="-0.0508" y="-0.8013" width="0.1015" height="3.1046" ry="0.0267" fill="currentColor"/>
</g>
<g transform="translate(32.4279, 76.1447)">
<path transform="scale(0.0040, -0.0040)" d="M222 135c64 0 104 -35 104 -86c0 -89 -114 -184 -221 -184c-64 0 -105 35 -105 86c0 89 115 184 222 184z" fill="currentColor"/>
</g>
<g transform="translate(33.6830, 74.1447)">
<rect x="-0.0508" y="-0.9977" width="0.1015" height="2.8010" ry="0.0267" fill="currentColor"/>
</g>
<g transform="translate(18.2665, 72.9437)">
<polygon stroke-linejoin="round" stroke-linecap="round" stroke-width="0.0533" fill="currentColor" stroke="currentColor" points="4.7120 -0.8114 4.7120 -0.3848 0.0267 0.2133 0.0267 -0.2133"/>
</g>
<g transform="translate(37.1161, 73.6447)">
<path transform="scale(0.0040, -0.0040)" d="M222 135c64 0 104 -35 104 -86c0 -89 -114 -184 -221 -184c-64 0 -105 35 -105 86c0 89 115 184 222 184z" fill="currentColor"/>
</g>
<g transform="translate(37.1161, 80.4822)">
<text font-family="serif" font-size="2.4697" text-anchor="start" fill="currentColor">
<tspan>1̇⋅6</tspan>
</text>
</g>
<g transform="translate(37.1668, 74.1447)">
<rect x="-0.0508" y="-0.3033" width="0.1015" height="2.5114" ry="0.0267" fill="currentColor"/>
</g>
<g transform="translate(28.0408, 74.1447)">
<path stroke-width="0.0625" stroke-linejoin="round" stroke-linecap="round" stroke="currentColor" fill="currentColor" d="M0.7022 3.5389C1.8541 4.3701 4.1541 4.1080 5.0894 3.0389L5.0894 3.0389C4.1434 4.0149 1.8435 4.2770 0.7022 3.5389z"/>
</g>
<g transform="translate(41.2532, 74.6447)">
<path transform="scale(0.0040, -0.0040)" d="M222 135c64 0 104 -35 104 -86c0 -89 -114 -184 -221 -184c-64 0 -105 35 -105 86c0 89 115 184 222 184z" fill="currentColor"/>
</g>
<g transform="translate(41.3040, 74.1447)">
<rect x="-0.0508" y="0.6967" width="0.1015" height="2.0952" ry="0.0267" fill="currentColor"/>
</g>
<g transform="translate(9.5937, 74.1447)">
<path stroke-width="0.0625" stroke-linejoin="round" stroke-linecap="round" stroke="currentColor" fill="currentColor" d="M0.7011 3.5389C2.8421 4.8523 11.0079 3.9417 12.8069 2.1889L12.8069 2.1889C10.9975 3.8486 2.8317 4.7592 0.7011 3.5389z"/>
</g>
<g transform="translate(48.3012, 75.1447)">
<path transform="scale(0.0040, -0.0040)" d="M316 67c0 23 -18 42 -42 42c-40 0 -209 -113 -237 -147c-7 -8 -10 -19 -10 -29c0 -23 18 -42 42 -42c40 0 209 113 237 147c7 8 10 19 10 29zM265 135c38 0 78 -13 78 -68c0 -27 -19 -111 -76 -150c-19 -13 -85 -52 -189 -52c-38 0 -78 13 -78 68c0 27 19 111 76 150
c19 13 85 52 189 52z" fill="currentColor"/>
</g>
<g transform="translate(48.3727, 80.4822)">
<text font-family="serif" font-size="2.4697" text-anchor="start" fill="currentColor">
<tspan>5</tspan>
</text>
</g>
<g transform="translate(49.6225, 74.1447)">
<rect x="-0.0508" y="-2.5000" width="0.1015" height="3.2316" ry="0.0267" fill="currentColor"/>
</g>
<g transform="translate(60.8664, 74.6447)">
<path transform="scale(0.0040, -0.0040)" d="M222 135c64 0 104 -35 104 -86c0 -89 -114 -184 -221 -184c-64 0 -105 35 -105 86c0 89 115 184 222 184z" fill="currentColor"/>
</g>
<g transform="translate(60.9047, 80.4822)">
<text font-family="serif" font-size="2.4697" text-anchor="start" fill="currentColor">
<tspan>6</tspan>
</text>
</g>
<g transform="translate(62.1214, 74.1447)">
<rect x="-0.0508" y="-3.0000" width="0.1015" height="3.3033" ry="0.0267" fill="currentColor"/>
</g>
<g transform="translate(68.4216, 73.6447)">
<path transform="scale(0.0040, -0.0040)" d="M222 135c64 0 104 -35 104 -86c0 -89 -114 -184 -221 -184c-64 0 -105 35 -105 86c0 89 115 184 222 184z" fill="currentColor"/>
</g>
<g transform="translate(68.4599, 80.4822)">
<text font-family="serif" font-size="2.4697" text-anchor="start" fill="currentColor">
<tspan>1̇</tspan>
</text>
</g>
<g transform="translate(68.4724, 74.1447)">
<rect x="-0.0508" y="-0.3033" width="0.1015" height="3.3033" ry="0.0267" fill="currentColor"/>
</g>
<g transform="translate(3.7937, 88.1447)">
<line stroke-linejoin="round" stroke-linecap="round" stroke-width="0.0781" stroke="currentColor" x1="0.0390" y1="0" x2="72.0413" y2="0"/>
</g>
<g transform="translate(3.7937, 87.1447)">
<line stroke-linejoin="round" stroke-linecap="round" stroke-width="0.0781" stroke="currentColor" x1="0.0390" y1="0" x2="72.0413" y2="0"/>
</g>
<g transform="translate(3.7937, 86.1447)">
<line stroke-linejoin="round" stroke-linecap="round" stroke-width="0.0781" stroke="currentColor" x1="0.0390" y1="0" x2="72.0413" y2="0"/>
</g>
<g transform="translate(3.7937, 85.1447)">
<line stroke-linejoin="round" stroke-linecap="round" stroke-width="0.0781" stroke="currentColor" x1="0.0390" y1="0" x2="72.0413" y2="0"/>
</g>
<g transform="translate(3.7937, 84.1447)">
<line stroke-linejoin="round" stroke-linecap="round" stroke-width="0.0781" stroke="currentColor" x1="0.0390" y1="0" x2="72.0413" y2="0"/>
</g>
<g transform="translate(75.7256, 86.1447)">
<rect x="0.0000" y="-2.0000" width="0.1484" height="4.0000" ry="0.0000" fill="currentColor"/>
</g>
<g transform="translate(75.3430, 86.1447)">
<rect x="0.0000" y="-2.0000" width="0.1484" height="4.0000" ry="0.0000" fill="currentColor"/>
</g>
<g transform="translate(60.4311, 86.1447)">
<rect x="0.0000" y="-2.0000" width="0.1484" height="4.0000" ry="0.0000" fill="currentColor"/>
</g>
<g transform="translate(45.5193, 86.1447)">
<rect x="0.0000" y="-2.0000" width="0.1484" height="4.0000" ry="0.0000" fill="currentColor"/>
</g>
<g transform="translate(24.6824, 86.1447)">
<rect x="0.0000" y="-2.0000" width="0.1484" height="4.0000" ry="0.0000" fill="currentColor"/>
</g>
<g transform="translate(48.4228, 86.1447)">
<path stroke-width="0.0625" stroke-linejoin="round" stroke-linecap="round" stroke="currentColor" fill="currentColor" d="M0.6860 2.1889C2.8700 3.8167 13.4139 3.8167 15.5979 2.1889L15.5979 2.1889C13.4139 3.7230 2.8700 3.7230 0.6860 2.1889z"/>
</g>
<g transform="translate(4.5937, 87.1447)">
<path transform="scale(0.0040, -0.0040)" d="M264 -594c47 0 165 26 165 246c0 32 -2 64 -5 96c-5 -1 -44 -8 -89 -8c-193 0 -333 178 -333 372c0 178 133 306 251 440c-27 93 -49 170 -49 345c0 116 55 226 150 295c5 4 11 4 16 0c67 -81 132 -246 132 -359c0 -144 -87 -256 -183 -365c20 -69 39 -138 55 -208
c2 0 7 1 15 1c154 0 254 -127 254 -259c0 -112 -73 -212 -180 -245c3 -36 5 -72 5 -108c0 -19 0 -37 -1 -56c-7 -120 -89 -226 -206 -226c-108 0 -195 87 -195 195c0 58 53 104 112 104c54 0 95 -48 95 -104c0 -52 -43 -95 -95 -95c-12 0 -24 4 -35 9c26 -41 70 -70 121 -70
zM459 -205c71 24 117 92 117 166c0 92 -69 184 -179 193c1 -5 45 -212 62 -359zM71 31c0 -146 142 -251 267 -251c1 0 46 0 82 6c-7 63 -28 201 -64 367c-79 -9 -125 -62 -125 -121c0 -44 26 -92 82 -124c4 -4 7 -9 7 -14c0 -11 -9 -21 -20 -21c-14 0 -125 62 -125 186
c0 88 57 173 158 196c-14 60 -30 119 -46 178c-108 -121 -216 -242 -216 -402zM411 1050c-99 -50 -161 -151 -161 -262c0 -59 11 -123 33 -200c82 97 149 198 149 325c0 35 0 69 -21 137z" fill="currentColor"/>
</g>
<g transform="translate(2.0638, 83.0852)">
<text font-family="serif" font-size="1.7462" text-anchor="start" fill="currentColor">
<tspan>25</tspan>
</text>
</g>
<g transform="translate(26.7175, 88.3456)">
<polygon stroke-linejoin="round" stroke-linecap="round" stroke-width="0.0533" fill="currentColor" stroke="currentColor" points="4.8611 -0.4143 4.8611 0.0124 0.0267 0.2133 0.0267 -0.2133"/>
</g>
<g transform="translate(9.5937, 85.1447)">
<path transform="scale(0.0040, -0.0040)" d="M222 135c64 0 104 -35 104 -86c0 -89 -114 -184 -221 -184c-64 0 -105 35 -105 86c0 89 115 184 222 184z" fill="currentColor"/>
</g>
<g transform="translate(9.5937, 91.6447)">
<text font-family="serif" font-size="2.4697" text-anchor="start" fill="currentColor">
<tspan>2̇.⋅3̇</tspan>
</text>
</g>
<g transform="translate(11.3563, 84.6447)">
<path transform="scale(0.0040, -0.0040)" d="M0 0c0 32 25 57 57 57s57 -25 57 -57s-25 -57 -57 -57s-57 25 -57 57z" fill="currentColor"/>
</g>
<g transform="translate(9.6445, 86.1447)">
<rect x="-0.0508" y="-0.8033" width="0.1015" height="3.3033" ry="0.0267" fill="currentColor"/>
</g>
<g transform="translate(19.8962, 84.6447)">
<path transform="scale(0.0040, -0.0040)" d="M222 135c64 0 104 -35 104 -86c0 -89 -114 -184 -221 -184c-64 0 -105 35 -105 86c0 89 115 184 222 184z" fill="currentColor"/>
</g>
<g transform="translate(19.9470, 86.1447)">
<rect x="-0.0508" y="-1.3033" width="0.1015" height="3.3033" ry="0.0267" fill="currentColor"/>
</g>
<g transform="translate(19.9977, 88.1180)">
<path transform="scale(0.0040, -0.0040)" d="M0 0h-14v250h14v-250zM0 0v250c98 58 228 147 228 259c0 57 -15 112 -40 164c-3 15 9 25 21 25c7 0 14 -3 18 -10c25 -56 40 -117 40 -179c0 -203 -267 -306 -267 -509z" fill="currentColor"/>
</g>
<g transform="translate(26.7175, 86.1447)">
<path stroke-width="0.0625" stroke-linejoin="round" stroke-linecap="round" stroke="currentColor" fill="currentColor" d="M0.6837 -1.5451C2.9234 -3.0178 12.7798 -2.3192 14.7923 -0.5451L14.7923 -0.5451C12.7732 -2.2257 2.9167 -2.9243 0.6837 -1.5451z"/>
</g>
<g transform="translate(26.7175, 85.6447)">
<path transform="scale(0.0040, -0.0040)" d="M222 135c64 0 104 -35 104 -86c0 -89 -114 -184 -221 -184c-64 0 -105 35 -105 86c0 89 115 184 222 184z" fill="currentColor"/>
</g>
<g transform="translate(26.7175, 91.6447)">
<text font-family="serif" font-size="2.4697" text-anchor="start" fill="currentColor">
<tspan>1̇2̇⋅1̇6</tspan>
</text>
</g>
<g transform="translate(26.7683, 86.1447)">
<rect x="-0.0508" y="-0.3033" width="0.1015" height="2.5021" ry="0.0267" fill="currentColor"/>
</g>
<g transform="translate(9.5937, 86.1447)">
<path stroke-width="0.0625" stroke-linejoin="round" stroke-linecap="round" stroke="currentColor" fill="currentColor" d="M0.6381 -2.1889C2.4032 -3.7123 9.0762 -3.9390 10.9406 -2.5389L10.9406 -2.5389C9.0794 -3.8453 2.4064 -3.6186 0.6381 -2.1889z"/>
</g>
<g transform="translate(31.5037, 85.1447)">
<path transform="scale(0.0040, -0.0040)" d="M222 135c64 0 104 -35 104 -86c0 -89 -114 -184 -221 -184c-64 0 -105 35 -105 86c0 89 115 184 222 184z" fill="currentColor"/>
</g>
<g transform="translate(31.5545, 86.1447)">
<rect x="-0.0508" y="-0.8033" width="0.1015" height="2.8054" ry="0.0267" fill="currentColor"/>
</g>
<g transform="translate(36.2899, 85.6447)">
<path transform="scale(0.0040, -0.0040)" d="M222 135c64 0 104 -35 104 -86c0 -89 -114 -184 -221 -184c-64 0 -105 35 -105 86c0 89 115 184 222 184z" fill="currentColor"/>
</g>
<g transform="translate(36.3407, 86.1447)">
<rect x="-0.0508" y="-0.3033" width="0.1015" height="2.5108" ry="0.0267" fill="currentColor"/>
</g>
<g transform="translate(36.2899, 88.3456)">
<polygon stroke-linejoin="round" stroke-linecap="round" stroke-width="0.0533" fill="currentColor" stroke="currentColor" points="4.6111 0.3848 4.6111 0.8114 0.0267 0.2133 0.0267 -0.2133"/>
</g>
<g transform="translate(40.8261, 86.6447)">
<path transform="scale(0.0040, -0.0040)" d="M222 135c64 0 104 -35 104 -86c0 -89 -114 -184 -221 -184c-64 0 -105 35 -105 86c0 89 115 184 222 184z" fill="currentColor"/>
</g>
<g transform="translate(40.8769, 86.1447)">
<rect x="-0.0508" y="0.6967" width="0.1015" height="2.0958" ry="0.0267" fill="currentColor"/>
</g>
<g transform="translate(48.4228, 87.1447)">
<path transform="scale(0.0040, -0.0040)" d="M316 67c0 23 -18 42 -42 42c-40 0 -209 -113 -237 -147c-7 -8 -10 -19 -10 -29c0 -23 18 -42 42 -42c40 0 209 113 237 147c7 8 10 19 10 29zM265 135c38 0 78 -13 78 -68c0 -27 -19 -111 -76 -150c-19 -13 -85 -52 -189 -52c-38 0 -78 13 -78 68c0 27 19 111 76 150
c19 13 85 52 189 52z" fill="currentColor"/>
</g>
<g transform="translate(48.4228, 91.6447)">
<text font-family="serif" font-size="2.4697" text-anchor="start" fill="currentColor">
<tspan>5</tspan>
</text>
</g>
<g transform="translate(49.7441, 86.1447)">
<rect x="-0.0508" y="-2.5000" width="0.1015" height="3.2316" ry="0.0267" fill="currentColor"/>
</g>
<g transform="translate(63.3346, 87.1447)">
<path transform="scale(0.0040, -0.0040)" d="M316 67c0 23 -18 42 -42 42c-40 0 -209 -113 -237 -147c-7 -8 -10 -19 -10 -29c0 -23 18 -42 42 -42c40 0 209 113 237 147c7 8 10 19 10 29zM265 135c38 0 78 -13 78 -68c0 -27 -19 -111 -76 -150c-19 -13 -85 -52 -189 -52c-38 0 -78 13 -78 68c0 27 19 111 76 150
c19 13 85 52 189 52z" fill="currentColor"/>
</g>
<g transform="translate(64.6559, 86.1447)">
<rect x="-0.0508" y="-2.5000" width="0.1015" height="3.2316" ry="0.0267" fill="currentColor"/>
</g>
</svg>
